<svg width="51" height="69" viewBox="0 0 51 69" fill="none" xmlns="http://www.w3.org/2000/svg">
<path fill-rule="evenodd" clip-rule="evenodd" d="M24.7175 20.8711C25.6696 20.8711 26.5827 21.2556 27.2559 21.9401C27.9292 22.6246 28.3074 23.5529 28.3074 24.5209C28.3074 25.2428 28.0968 25.9485 27.7024 26.5487C27.3079 27.1489 26.7472 27.6167 26.0913 27.893C25.4353 28.1692 24.7135 28.2415 24.0171 28.1007C23.3207 27.9598 22.6811 27.6122 22.179 27.1018C21.6769 26.5913 21.335 25.941 21.1965 25.233C21.058 24.525 21.1291 23.7911 21.4008 23.1242C21.6725 22.4573 22.1326 21.8873 22.723 21.4862C23.3134 21.0852 24.0074 20.8711 24.7175 20.8711Z" fill="#0471B5"/>
<path fill-rule="evenodd" clip-rule="evenodd" d="M7.77443 24.7921C11.4649 23.0853 13.554 28.9721 9.99339 30.3398C8.29055 30.9943 6.57001 30.2114 5.96358 28.7023C5.04472 26.4154 6.4651 25.3976 7.77443 24.7921ZM10.3735 13.104C13.4103 11.242 15.2357 16.3229 12.6854 17.4806C9.73553 18.8191 7.11035 15.1051 10.3735 13.104ZM25.2276 49.1451C36.993 49.188 45.1222 41.5416 48.1951 33.3951C49.5352 29.842 47.2193 27.2293 44.5127 29.0591C43.5742 29.6933 43.3575 30.979 42.8418 32.2711C38.6025 42.8916 25.2145 47.6962 14.4598 41.0243C13.0382 40.1429 9.43154 37.6873 12.1443 35.4023C13.4148 34.3324 14.6546 34.773 15.7011 35.5655C23.4828 41.4573 33.4844 39.4374 37.7647 31.1161C43.0105 20.9183 34.3356 18.7333 33.9993 24.4373C33.3748 35.0336 22.2062 35.8338 17.8497 29.8619C14.2342 24.9059 16.7725 19.0521 20.8219 16.8038C28.2259 12.6928 32.3591 21.6437 34.7199 16.6739C35.927 14.1333 32.1266 12.3203 30.5333 11.68C26.6145 10.1043 22.5905 10.1464 18.6767 12.082C14.2211 14.2862 13.4095 10.2265 14.6181 8.67836C15.1481 7.99973 16.6753 7.35594 17.4954 7.01296C26.4939 3.24991 31.011 7.14018 33.2822 6.83785C36.0077 6.47458 36.7325 2.86094 33.5458 1.53584C24.9201 -2.05097 14.1135 0.983263 7.86091 7.12984C-7.39483 22.1258 2.15128 49.0612 25.2276 49.1451Z" fill="#0571B9"/>
<path fill-rule="evenodd" clip-rule="evenodd" d="M45.1954 11.2654C45.8141 11.2654 46.4268 11.3869 46.9984 11.623C47.57 11.8591 48.0895 12.2051 48.527 12.6414C48.9645 13.0777 49.3115 13.5956 49.5483 14.1656C49.7851 14.7356 49.907 15.3465 49.907 15.9634C49.907 16.8926 49.6306 17.801 49.1129 18.5736C48.5952 19.3461 47.8594 19.9483 46.9984 20.3039C46.1375 20.6595 45.1902 20.7525 44.2762 20.5713C43.3623 20.39 42.5228 19.9425 41.8638 19.2855C41.2049 18.6285 40.7562 17.7914 40.5744 16.88C40.3926 15.9687 40.4859 15.0241 40.8425 14.1656C41.1991 13.3071 41.803 12.5734 42.5778 12.0572C43.3526 11.5409 44.2635 11.2654 45.1954 11.2654Z" fill="#F4981D"/>
<path fill-rule="evenodd" clip-rule="evenodd" d="M21.2445 39.1159C21.8065 39.1159 22.3455 39.3316 22.7428 39.7157C23.1402 40.0997 23.3634 40.6205 23.3634 41.1636C23.3634 41.5686 23.2392 41.9645 23.0063 42.3012C22.7735 42.6379 22.4426 42.9004 22.0554 43.0554C21.6682 43.2104 21.2422 43.2509 20.8312 43.1719C20.4201 43.0929 20.0426 42.8979 19.7462 42.6115C19.4499 42.3251 19.2481 41.9603 19.1663 41.5631C19.0846 41.1658 19.1266 40.7541 19.2869 40.38C19.4473 40.0058 19.7189 39.686 20.0673 39.461C20.4158 39.236 20.8255 39.1159 21.2445 39.1159Z" fill="#0A6EB3"/>
<path d="M1.34509 68.8034C0.909917 68.8034 0.573643 68.692 0.336274 68.4692C0.112091 68.2333 0 67.8991 0 67.4667V56.2812C0 55.8487 0.112091 55.5211 0.336274 55.2983C0.573643 55.0624 0.909917 54.9444 1.34509 54.9444H5.18257C7.5167 54.9444 9.31676 55.5407 10.5827 56.7333C11.8619 57.9259 12.5015 59.6362 12.5015 61.8641C12.5015 62.9781 12.3366 63.9675 12.0069 64.8325C11.6905 65.6843 11.2157 66.4051 10.5827 66.9949C9.96293 67.5846 9.19807 68.0368 8.28815 68.3513C7.39143 68.6527 6.35623 68.8034 5.18257 68.8034H1.34509ZM2.53194 66.7197H5.02432C5.84193 66.7197 6.54744 66.6214 7.14087 66.4248C7.74748 66.2151 8.24859 65.9137 8.64421 65.5205C9.05301 65.1143 9.35632 64.6097 9.55413 64.0068C9.75193 63.3909 9.85084 62.6766 9.85084 61.8641C9.85084 60.239 9.44863 59.0268 8.64421 58.2274C7.83979 57.4279 6.63316 57.0282 5.02432 57.0282H2.53194V66.7197Z" fill="#F4981D"/>
<path d="M19.8741 69C19.2939 69 18.7137 68.9541 18.1334 68.8624C17.5532 68.7838 17.0059 68.6593 16.4916 68.4889C15.9773 68.3054 15.5158 68.0826 15.107 67.8205C14.8696 67.6633 14.7048 67.4732 14.6124 67.2504C14.5201 67.0276 14.4872 66.8114 14.5135 66.6017C14.5531 66.3789 14.6388 66.1889 14.7707 66.0316C14.9158 65.8613 15.0938 65.7564 15.3048 65.7171C15.5158 65.6778 15.7465 65.7368 15.9971 65.894C16.5773 66.2348 17.1905 66.4838 17.8367 66.641C18.4829 66.7983 19.162 66.8769 19.8741 66.8769C20.9159 66.8769 21.6742 66.7066 22.1489 66.3658C22.6237 66.012 22.861 65.5598 22.861 65.0094C22.861 64.5507 22.6896 64.1903 22.3467 63.9282C22.0171 63.6661 21.4434 63.4499 20.6258 63.2795L18.4499 62.8274C17.1971 62.5652 16.2608 62.1262 15.641 61.5103C15.0344 60.8812 14.7311 60.0556 14.7311 59.0333C14.7311 58.3912 14.863 57.808 15.1267 57.2838C15.3905 56.7595 15.7597 56.3074 16.2345 55.9274C16.7224 55.5473 17.296 55.259 17.9554 55.0624C18.6279 54.8527 19.3664 54.7479 20.1709 54.7479C20.9621 54.7479 21.7138 54.8462 22.4259 55.0427C23.138 55.2393 23.7775 55.5276 24.3446 55.9077C24.5556 56.0519 24.6941 56.2288 24.76 56.4385C24.8391 56.6481 24.8589 56.8578 24.8193 57.0675C24.7798 57.2641 24.6875 57.4345 24.5424 57.5786C24.3974 57.7228 24.2127 57.808 23.9885 57.8342C23.7776 57.8604 23.5336 57.7949 23.2567 57.6376C22.7687 57.3624 22.2742 57.1658 21.7731 57.0479C21.272 56.9299 20.7313 56.8709 20.1511 56.8709C19.5445 56.8709 19.0236 56.9561 18.5884 57.1265C18.1532 57.2969 17.8169 57.5393 17.5796 57.8539C17.3554 58.1553 17.2433 58.5157 17.2433 58.935C17.2433 59.4068 17.4015 59.7869 17.718 60.0752C18.0345 60.3504 18.5752 60.5667 19.3401 60.7239L21.4962 61.1761C22.8017 61.4513 23.771 61.8838 24.4039 62.4735C25.0501 63.0633 25.3732 63.8496 25.3732 64.8325C25.3732 65.4615 25.2413 66.0316 24.9776 66.5427C24.727 67.0539 24.3578 67.4929 23.8699 67.8598C23.3951 68.2268 22.8215 68.5086 22.1489 68.7051C21.4764 68.9017 20.7181 69 19.8741 69Z" fill="#F4981D"/>
<path d="M28.8914 68.8034C28.4562 68.8034 28.12 68.692 27.8826 68.4692C27.6584 68.2333 27.5463 67.8991 27.5463 67.4667V56.2812C27.5463 55.8487 27.6584 55.5211 27.8826 55.2983C28.12 55.0624 28.4562 54.9444 28.8914 54.9444H35.9531C36.2828 54.9444 36.5334 55.0296 36.7048 55.2C36.8894 55.3704 36.9818 55.6128 36.9818 55.9274C36.9818 56.255 36.8894 56.5105 36.7048 56.694C36.5334 56.8644 36.2828 56.9496 35.9531 56.9496H29.9793V60.7633H35.518C35.8608 60.7633 36.118 60.8484 36.2894 61.0188C36.4609 61.1892 36.5466 61.4382 36.5466 61.7658C36.5466 62.0935 36.4609 62.3425 36.2894 62.5128C36.118 62.6832 35.8608 62.7684 35.518 62.7684H29.9793V66.7983H35.9531C36.2828 66.7983 36.5334 66.8835 36.7048 67.0538C36.8894 67.2242 36.9818 67.4732 36.9818 67.8009C36.9818 68.1285 36.8894 68.3775 36.7048 68.5479C36.5334 68.7182 36.2828 68.8034 35.9531 68.8034H28.8914Z" fill="#F4981D"/>
<path d="M45.1449 69C44.1822 69 43.3316 68.8755 42.5932 68.6265C41.8679 68.3775 41.2547 68.0105 40.7535 67.5256C40.2524 67.0276 39.8766 66.4117 39.626 65.6778C39.3755 64.9439 39.2502 64.092 39.2502 63.1222V56.065C39.2502 55.6325 39.3557 55.3114 39.5667 55.1017C39.7909 54.892 40.1074 54.7872 40.5162 54.7872C40.925 54.7872 41.2349 54.892 41.4459 55.1017C41.6701 55.3114 41.7821 55.6325 41.7821 56.065V63.1026C41.7821 64.3476 42.0657 65.2846 42.6327 65.9137C43.213 66.5296 44.0503 66.8376 45.1449 66.8376C46.2394 66.8376 47.0702 66.5296 47.6373 65.9137C48.2043 65.2846 48.4878 64.3476 48.4878 63.1026V56.065C48.4878 55.6325 48.5933 55.3114 48.8043 55.1017C49.0285 54.892 49.345 54.7872 49.7538 54.7872C50.1494 54.7872 50.4527 54.892 50.6637 55.1017C50.8879 55.3114 51 55.6325 51 56.065V63.1222C51 64.4066 50.7758 65.4878 50.3275 66.3658C49.8923 67.2439 49.2395 67.9057 48.3692 68.3513C47.4988 68.7838 46.424 69 45.1449 69Z" fill="#F4981D"/>
</svg>
