<svg width="162" height="29" viewBox="0 0 162 29" fill="none" xmlns="http://www.w3.org/2000/svg">
<path d="M8.06 19.1C6.47333 19.1 5.09333 18.8133 3.92 18.24C2.74667 17.6533 1.84667 16.8267 1.22 15.76C0.593333 14.6933 0.28 13.4533 0.28 12.04C0.28 10.08 0.646667 8.34 1.38 6.82C2.12667 5.3 3.13333 4.12667 4.4 3.3C5.66667 2.46 7.07333 2.04 8.62 2.04C10.06 2.04 11.1533 2.41333 11.9 3.16C12.6467 3.89333 13.02 4.86667 13.02 6.08C13.02 6.89333 12.8733 7.54667 12.58 8.04C12.3 8.53333 11.8933 8.78 11.36 8.78C10.9867 8.78 10.6933 8.69333 10.48 8.52C10.2667 8.34667 10.16 8.09333 10.16 7.76C10.16 7.64 10.1867 7.42 10.24 7.1C10.32 6.7 10.36 6.38 10.36 6.14C10.36 4.92667 9.71333 4.32 8.42 4.32C7.54 4.32 6.7 4.60667 5.9 5.18C5.1 5.75333 4.45333 6.6 3.96 7.72C3.46667 8.82667 3.22 10.1467 3.22 11.68C3.22 13.28 3.66667 14.52 4.56 15.4C5.45333 16.2667 6.77333 16.7 8.52 16.7C9.38667 16.7 10.26 16.5933 11.14 16.38C12.0333 16.1533 13.02 15.8133 14.1 15.36C14.3 15.28 14.4667 15.24 14.6 15.24C14.8133 15.24 14.9733 15.32 15.08 15.48C15.1867 15.64 15.24 15.8467 15.24 16.1C15.24 16.9133 14.8 17.5133 13.92 17.9C12.9733 18.3133 11.9867 18.62 10.96 18.82C9.94667 19.0067 8.98 19.1 8.06 19.1ZM15.0909 19.1C14.5843 19.1 14.2243 18.8333 14.0109 18.3C13.8109 17.7667 13.7109 16.9133 13.7109 15.74C13.7109 14.0067 13.9576 12.36 14.4509 10.8C14.5709 10.4133 14.7643 10.1333 15.0309 9.96C15.3109 9.77333 15.6976 9.68 16.1909 9.68C16.4576 9.68 16.6443 9.71333 16.7509 9.78C16.8576 9.84667 16.9109 9.97333 16.9109 10.16C16.9109 10.3733 16.8109 10.8533 16.6109 11.6C16.4776 12.1333 16.3709 12.6 16.2909 13C16.2109 13.4 16.1443 13.8933 16.0909 14.48C16.5309 13.3333 17.0243 12.4 17.5709 11.68C18.1176 10.96 18.6509 10.4467 19.1709 10.14C19.7043 9.83333 20.1909 9.68 20.6309 9.68C21.4976 9.68 21.9309 10.1133 21.9309 10.98C21.9309 11.1533 21.8709 11.5733 21.7509 12.24C21.6443 12.7733 21.5909 13.1067 21.5909 13.24C21.5909 13.7067 21.7576 13.94 22.0909 13.94C22.4643 13.94 22.9443 13.6467 23.5309 13.06C23.7043 12.8867 23.8843 12.8 24.0709 12.8C24.2443 12.8 24.3776 12.88 24.4709 13.04C24.5776 13.1867 24.6309 13.3867 24.6309 13.64C24.6309 14.1333 24.4976 14.52 24.2309 14.8C23.8576 15.1867 23.4176 15.52 22.9109 15.8C22.4176 16.0667 21.8909 16.2 21.3309 16.2C20.6243 16.2 20.0843 16.02 19.7109 15.66C19.3509 15.3 19.1709 14.8133 19.1709 14.2C19.1709 14 19.1909 13.8 19.2309 13.6C19.2576 13.3333 19.2709 13.1533 19.2709 13.06C19.2709 12.8467 19.1976 12.74 19.0509 12.74C18.8509 12.74 18.5843 12.9667 18.2509 13.42C17.9309 13.86 17.6109 14.4467 17.2909 15.18C16.9709 15.9133 16.7109 16.6867 16.5109 17.5C16.3643 18.1267 16.1909 18.5533 15.9909 18.78C15.8043 18.9933 15.5043 19.1 15.0909 19.1ZM25.2325 19.1C24.4058 19.1 23.7458 18.8 23.2525 18.2C22.7592 17.6 22.5125 16.8133 22.5125 15.84C22.5125 14.7733 22.7592 13.7667 23.2525 12.82C23.7458 11.86 24.3992 11.0933 25.2125 10.52C26.0392 9.93333 26.9125 9.64 27.8325 9.64C28.1258 9.64 28.3192 9.7 28.4125 9.82C28.5192 9.92667 28.6058 10.1267 28.6725 10.42C28.9525 10.3667 29.2458 10.34 29.5525 10.34C30.2058 10.34 30.5325 10.5733 30.5325 11.04C30.5325 11.32 30.4325 11.9867 30.2325 13.04C29.9258 14.5733 29.7725 15.64 29.7725 16.24C29.7725 16.44 29.8192 16.6 29.9125 16.72C30.0192 16.84 30.1525 16.9 30.3125 16.9C30.5658 16.9 30.8725 16.74 31.2325 16.42C31.5925 16.0867 32.0792 15.5533 32.6925 14.82C32.8525 14.6333 33.0325 14.54 33.2325 14.54C33.4058 14.54 33.5392 14.62 33.6325 14.78C33.7392 14.94 33.7925 15.16 33.7925 15.44C33.7925 15.9733 33.6658 16.3867 33.4125 16.68C32.8658 17.36 32.2858 17.9333 31.6725 18.4C31.0592 18.8667 30.4658 19.1 29.8925 19.1C29.4525 19.1 29.0458 18.9533 28.6725 18.66C28.3125 18.3533 28.0392 17.94 27.8525 17.42C27.1592 18.54 26.2858 19.1 25.2325 19.1ZM25.9525 17.08C26.2458 17.08 26.5258 16.9067 26.7925 16.56C27.0592 16.2133 27.2525 15.7533 27.3725 15.18L28.1125 11.5C27.5525 11.5133 27.0325 11.7267 26.5525 12.14C26.0858 12.54 25.7125 13.0733 25.4325 13.74C25.1525 14.4067 25.0125 15.1133 25.0125 15.86C25.0125 16.2733 25.0925 16.58 25.2525 16.78C25.4258 16.98 25.6592 17.08 25.9525 17.08ZM39.9517 13.4C40.3251 13.4 40.5117 13.68 40.5117 14.24C40.5117 15.2933 39.6851 15.82 38.0317 15.82C37.7117 15.82 37.2517 15.76 36.6517 15.64C36.8251 16.4667 36.9651 17.3867 37.0717 18.4C37.1917 19.4 37.2517 20.2267 37.2517 20.88C37.2517 22.32 37.0184 23.42 36.5517 24.18C36.0851 24.94 35.4717 25.32 34.7117 25.32C33.7517 25.32 33.0651 24.64 32.6517 23.28C32.2517 21.92 32.0517 19.8667 32.0517 17.12C32.0517 14.56 32.3251 11.9667 32.8717 9.34C33.4317 6.7 34.1917 4.52 35.1517 2.8C36.1251 1.06667 37.1917 0.199999 38.3517 0.199999C38.9784 0.199999 39.4651 0.479999 39.8117 1.04C40.1717 1.6 40.3517 2.35333 40.3517 3.3C40.3517 6.43333 38.4784 9.84667 34.7317 13.54C34.5984 14.8467 34.5317 15.9933 34.5317 16.98C34.5317 18.3533 34.5784 19.76 34.6717 21.2C34.7651 22.6533 34.9184 23.38 35.1317 23.38C35.5317 23.38 35.7317 22.6867 35.7317 21.3C35.7317 20.26 35.6584 19.2533 35.5117 18.28C35.3784 17.3067 35.1917 16.28 34.9517 15.2C34.9384 15.0267 34.9917 14.8067 35.1117 14.54C35.2451 14.2733 35.4051 14.04 35.5917 13.84C35.7784 13.64 35.9451 13.54 36.0917 13.54C36.3584 13.54 36.6784 13.5533 37.0517 13.58C37.1717 13.5933 37.3117 13.6 37.4717 13.6C38.0051 13.6 38.5984 13.5533 39.2517 13.46C39.3584 13.4467 39.4717 13.4333 39.5917 13.42C39.7117 13.4067 39.8317 13.4 39.9517 13.4ZM37.9317 2.18C37.6917 2.18 37.3917 2.58667 37.0317 3.4C36.6851 4.21333 36.3384 5.29333 35.9917 6.64C35.6451 7.97333 35.3451 9.38667 35.0917 10.88C36.1584 9.66667 36.9784 8.40667 37.5517 7.1C38.1251 5.78 38.4184 4.54667 38.4317 3.4C38.4317 2.58667 38.2651 2.18 37.9317 2.18ZM48.1183 14.54C48.2916 14.54 48.4249 14.62 48.5183 14.78C48.6249 14.94 48.6783 15.16 48.6783 15.44C48.6783 15.9733 48.5516 16.3867 48.2983 16.68C47.7249 17.3867 47.0983 17.9667 46.4183 18.42C45.7383 18.8733 44.9583 19.1 44.0783 19.1C41.3583 19.1 39.9983 17.1867 39.9983 13.36C39.9983 12.7733 40.0183 12.18 40.0583 11.58H39.2783C38.8783 11.58 38.6049 11.5067 38.4583 11.36C38.3249 11.2133 38.2583 10.98 38.2583 10.66C38.2583 9.91333 38.5583 9.54 39.1583 9.54H40.2983C40.5249 8.07333 40.8716 6.73333 41.3383 5.52C41.8049 4.30667 42.3649 3.34 43.0183 2.62C43.6849 1.9 44.3983 1.54 45.1583 1.54C45.7183 1.54 46.1583 1.78667 46.4783 2.28C46.7983 2.77333 46.9583 3.39333 46.9583 4.14C46.9583 6.20667 46.0916 8.00667 44.3583 9.54H46.5983C46.8116 9.54 46.9649 9.58667 47.0583 9.68C47.1516 9.77333 47.1983 9.94667 47.1983 10.2C47.1983 11.12 46.4449 11.58 44.9383 11.58H42.4983C42.4716 12.2467 42.4583 12.7667 42.4583 13.14C42.4583 14.5267 42.6183 15.5 42.9383 16.06C43.2716 16.62 43.7916 16.9 44.4983 16.9C45.0716 16.9 45.5783 16.7267 46.0183 16.38C46.4583 16.0333 46.9783 15.5133 47.5783 14.82C47.7383 14.6333 47.9183 14.54 48.1183 14.54ZM44.6183 3.46C44.4183 3.46 44.1916 3.71333 43.9383 4.22C43.6983 4.71333 43.4649 5.40667 43.2383 6.3C43.0249 7.18 42.8449 8.16 42.6983 9.24C43.4849 8.56 44.0716 7.8 44.4583 6.96C44.8583 6.10667 45.0583 5.33333 45.0583 4.64C45.0583 3.85333 44.9116 3.46 44.6183 3.46ZM49.6698 8.36C49.1098 8.36 48.6898 8.23333 48.4098 7.98C48.1298 7.71333 47.9898 7.34667 47.9898 6.88C47.9898 6.41333 48.1698 6.02667 48.5298 5.72C48.9032 5.4 49.3632 5.24 49.9098 5.24C50.4032 5.24 50.8032 5.36 51.1098 5.6C51.4165 5.84 51.5698 6.18 51.5698 6.62C51.5698 7.15333 51.3965 7.58 51.0498 7.9C50.7032 8.20667 50.2432 8.36 49.6698 8.36ZM49.5098 19.1C48.6432 19.1 48.0098 18.7933 47.6098 18.18C47.2232 17.5667 47.0298 16.7533 47.0298 15.74C47.0298 15.14 47.1032 14.3733 47.2498 13.44C47.4098 12.4933 47.6098 11.6133 47.8498 10.8C47.9698 10.3733 48.1298 10.08 48.3298 9.92C48.5298 9.76 48.8498 9.68 49.2898 9.68C49.9698 9.68 50.3098 9.90667 50.3098 10.36C50.3098 10.6933 50.1832 11.4667 49.9298 12.68C49.6098 14.1467 49.4498 15.14 49.4498 15.66C49.4498 16.06 49.5032 16.3667 49.6098 16.58C49.7165 16.7933 49.8965 16.9 50.1498 16.9C50.3898 16.9 50.6898 16.7333 51.0498 16.4C51.4098 16.0667 51.8898 15.54 52.4898 14.82C52.6498 14.6333 52.8298 14.54 53.0298 14.54C53.2032 14.54 53.3365 14.62 53.4298 14.78C53.5365 14.94 53.5898 15.16 53.5898 15.44C53.5898 15.9733 53.4632 16.3867 53.2098 16.68C51.8898 18.2933 50.6565 19.1 49.5098 19.1ZM53.3917 19.1C52.8851 19.1 52.5251 18.8333 52.3117 18.3C52.1117 17.7667 52.0117 16.9133 52.0117 15.74C52.0117 14.0067 52.2584 12.36 52.7517 10.8C52.8717 10.4133 53.0651 10.1333 53.3317 9.96C53.6117 9.77333 53.9984 9.68 54.4917 9.68C54.7584 9.68 54.9451 9.71333 55.0517 9.78C55.1584 9.84667 55.2117 9.97333 55.2117 10.16C55.2117 10.3733 55.1117 10.8533 54.9117 11.6C54.7784 12.1333 54.6717 12.6 54.5917 13C54.5117 13.4 54.4451 13.8933 54.3917 14.48C54.8317 13.3333 55.3251 12.4 55.8717 11.68C56.4184 10.96 56.9517 10.4467 57.4717 10.14C58.0051 9.83333 58.4917 9.68 58.9317 9.68C59.7984 9.68 60.2317 10.1133 60.2317 10.98C60.2317 11.5 60.0851 12.44 59.7917 13.8C59.5384 14.96 59.4117 15.7267 59.4117 16.1C59.4117 16.6333 59.6051 16.9 59.9917 16.9C60.2584 16.9 60.5717 16.74 60.9317 16.42C61.3051 16.0867 61.7984 15.5533 62.4117 14.82C62.5717 14.6333 62.7517 14.54 62.9517 14.54C63.1251 14.54 63.2584 14.62 63.3517 14.78C63.4584 14.94 63.5117 15.16 63.5117 15.44C63.5117 15.9733 63.3851 16.3867 63.1317 16.68C62.5584 17.3867 61.9384 17.9667 61.2717 18.42C60.6184 18.8733 59.8717 19.1 59.0317 19.1C58.3517 19.1 57.8384 18.9067 57.4917 18.52C57.1451 18.12 56.9717 17.5467 56.9717 16.8C56.9717 16.4267 57.0651 15.76 57.2517 14.8C57.4251 13.96 57.5117 13.38 57.5117 13.06C57.5117 12.8467 57.4384 12.74 57.2917 12.74C57.1184 12.74 56.8717 12.9667 56.5517 13.42C56.2451 13.86 55.9251 14.4467 55.5917 15.18C55.2717 15.9133 55.0117 16.6867 54.8117 17.5C54.6651 18.1267 54.4917 18.5533 54.2917 18.78C54.1051 18.9933 53.8051 19.1 53.3917 19.1ZM68.6736 10.34C69.0069 10.34 69.2403 10.3933 69.3736 10.5C69.5203 10.5933 69.5936 10.7867 69.5936 11.08C69.5936 11.24 69.5869 11.3667 69.5736 11.46C69.5203 11.8733 69.3536 12.94 69.0736 14.66C68.8736 15.82 68.7469 16.5867 68.6936 16.96C68.1869 20.4 67.5003 23.1133 66.6336 25.1C65.7803 27.1 64.6336 28.1 63.1936 28.1C62.5136 28.1 61.9603 27.8867 61.5336 27.46C61.1069 27.0467 60.8936 26.5 60.8936 25.82C60.8936 24.8733 61.2669 23.8533 62.0136 22.76C62.7603 21.68 64.1603 20.3467 66.2136 18.76L66.3336 17.98C66.1069 18.34 65.8069 18.62 65.4336 18.82C65.0736 19.0067 64.7136 19.1 64.3536 19.1C63.5269 19.1 62.8669 18.8 62.3736 18.2C61.8803 17.6 61.6336 16.8133 61.6336 15.84C61.6336 14.7733 61.8803 13.7667 62.3736 12.82C62.8669 11.86 63.5203 11.0933 64.3336 10.52C65.1603 9.93333 66.0336 9.64 66.9536 9.64C67.2469 9.64 67.4403 9.7 67.5336 9.82C67.6403 9.92667 67.7269 10.1267 67.7936 10.42C68.0469 10.3667 68.3403 10.34 68.6736 10.34ZM65.0736 17.08C65.3803 17.08 65.6736 16.8933 65.9536 16.52C66.2336 16.1467 66.4336 15.6133 66.5536 14.92L67.1936 11.5C66.6469 11.5133 66.1403 11.7267 65.6736 12.14C65.2069 12.54 64.8336 13.0733 64.5536 13.74C64.2736 14.4067 64.1336 15.1133 64.1336 15.86C64.1336 16.2733 64.2136 16.58 64.3736 16.78C64.5469 16.98 64.7803 17.08 65.0736 17.08ZM63.4136 26.16C63.7469 26.16 64.1203 25.76 64.5336 24.96C64.9603 24.16 65.3669 22.8867 65.7536 21.14C64.7269 22.02 63.9869 22.8133 63.5336 23.52C63.0803 24.2267 62.8536 24.8467 62.8536 25.38C62.8536 25.6067 62.8936 25.7933 62.9736 25.94C63.0669 26.0867 63.2136 26.16 63.4136 26.16ZM90.3109 15.36C90.5109 15.28 90.6776 15.24 90.8109 15.24C91.0243 15.24 91.1843 15.32 91.2909 15.48C91.3976 15.64 91.4509 15.8467 91.4509 16.1C91.4509 16.5 91.3509 16.84 91.1509 17.12C90.9643 17.4 90.6376 17.6533 90.1709 17.88C89.3843 18.2533 88.3643 18.5533 87.1109 18.78C85.8576 18.9933 84.6243 19.1 83.4109 19.1C81.7309 19.1 80.3243 18.9133 79.1909 18.54C78.0576 18.1533 77.2109 17.6267 76.6509 16.96C76.1043 16.2933 75.8309 15.54 75.8309 14.7C75.8309 13.5533 76.1976 12.58 76.9309 11.78C77.6776 10.9667 78.7709 10.38 80.2109 10.02C79.4243 9.79333 78.8176 9.39333 78.3909 8.82C77.9776 8.24667 77.7709 7.60667 77.7709 6.9C77.7709 5.94 78.0709 5.09333 78.6709 4.36C79.2843 3.61333 80.1043 3.04 81.1309 2.64C82.1576 2.24 83.2843 2.04 84.5109 2.04C86.1643 2.04 87.4043 2.4 88.2309 3.12C89.0576 3.82667 89.4709 4.74667 89.4709 5.88C89.4709 6.66667 89.3243 7.30667 89.0309 7.8C88.7509 8.28 88.3443 8.52 87.8109 8.52C87.4376 8.52 87.1443 8.44 86.9309 8.28C86.7176 8.10667 86.6109 7.85333 86.6109 7.52C86.6109 7.29333 86.6443 7.04667 86.7109 6.78C86.7776 6.34 86.8109 6.04 86.8109 5.88C86.8109 5.4 86.6309 5.01333 86.2709 4.72C85.9109 4.41333 85.3109 4.26 84.4709 4.26C83.3376 4.26 82.4309 4.5 81.7509 4.98C81.0709 5.46 80.7309 6.10667 80.7309 6.92C80.7309 7.54667 80.9843 8.06667 81.4909 8.48C82.0109 8.88 82.8509 9.1 84.0109 9.14C84.3043 9.15333 84.5109 9.22 84.6309 9.34C84.7509 9.46 84.8109 9.66 84.8109 9.94C84.8109 10.82 84.4109 11.2667 83.6109 11.28C82.5043 11.3067 81.5843 11.46 80.8509 11.74C80.1309 12.02 79.6043 12.38 79.2709 12.82C78.9509 13.2467 78.7909 13.7067 78.7909 14.2C78.7909 15.0267 79.1776 15.6533 79.9509 16.08C80.7243 16.4933 81.9509 16.7 83.6309 16.7C84.7376 16.7 85.9043 16.5733 87.1309 16.32C88.3709 16.0533 89.4309 15.7333 90.3109 15.36ZM101.522 14.54C101.695 14.54 101.829 14.62 101.922 14.78C102.029 14.94 102.082 15.16 102.082 15.44C102.082 15.9733 101.955 16.3867 101.702 16.68C101.115 17.3733 100.469 17.9533 99.7619 18.42C99.0685 18.8733 98.2819 19.1 97.4019 19.1C96.7219 19.1 96.1152 18.9733 95.5819 18.72C95.0619 18.4667 94.6485 18.1067 94.3419 17.64C93.5819 18.6 92.6819 19.08 91.6419 19.08C90.9085 19.08 90.3285 18.8667 89.9019 18.44C89.4752 18.0133 89.2619 17.4467 89.2619 16.74C89.2619 16.0733 89.4152 15.5333 89.7219 15.12C90.0285 14.7067 90.4619 14.5 91.0219 14.5C91.5019 14.5 91.7419 14.68 91.7419 15.04C91.7419 15.1333 91.7285 15.3 91.7019 15.54C91.6619 16.02 91.6419 16.2933 91.6419 16.36C91.6419 16.76 91.8152 16.96 92.1619 16.96C92.4152 16.96 92.6552 16.8133 92.8819 16.52C93.1219 16.2133 93.3152 15.8 93.4619 15.28C93.6219 14.76 93.7019 14.1867 93.7019 13.56C93.7019 13.08 93.6419 12.68 93.5219 12.36C93.4019 12.0267 93.2552 11.86 93.0819 11.86C92.9352 11.86 92.8285 11.9 92.7619 11.98C92.6952 12.0467 92.6285 12.1667 92.5619 12.34C92.4819 12.5533 92.3752 12.7267 92.2419 12.86C92.1085 12.98 91.8752 13.04 91.5419 13.04C91.2485 13.04 91.0152 12.94 90.8419 12.74C90.6685 12.5267 90.5819 12.2067 90.5819 11.78C90.5819 11.1 90.7885 10.5667 91.2019 10.18C91.6152 9.79333 92.1485 9.6 92.8019 9.6C93.3619 9.6 93.8685 9.74 94.3219 10.02C94.7752 10.2867 95.1219 10.68 95.3619 11.2C95.7619 10.6667 96.2085 10.2667 96.7019 10C97.2085 9.73333 97.7019 9.6 98.1819 9.6C98.7019 9.6 99.0952 9.72 99.3619 9.96C99.6419 10.2 99.7819 10.5867 99.7819 11.12C99.7819 11.72 99.6685 12.1933 99.4419 12.54C99.2152 12.8733 98.9419 13.04 98.6219 13.04C98.3285 13.04 98.1285 12.98 98.0219 12.86C97.9152 12.74 97.8352 12.5667 97.7819 12.34C97.7552 12.18 97.7152 12.06 97.6619 11.98C97.6085 11.9 97.5152 11.86 97.3819 11.86C97.2219 11.86 97.0485 12.0133 96.8619 12.32C96.6885 12.6133 96.5352 13.0067 96.4019 13.5C96.2819 13.9933 96.2219 14.5067 96.2219 15.04C96.2219 15.6667 96.3685 16.1533 96.6619 16.5C96.9685 16.8333 97.3819 17 97.9019 17C98.4219 17 98.9085 16.8267 99.3619 16.48C99.8285 16.12 100.369 15.5667 100.982 14.82C101.142 14.6333 101.322 14.54 101.522 14.54ZM104.288 19.1C102.981 19.1 101.961 18.7333 101.228 18C100.508 17.2533 100.148 16.2733 100.148 15.06C100.148 13.98 100.361 13.0333 100.788 12.22C101.214 11.4067 101.768 10.78 102.448 10.34C103.128 9.9 103.841 9.68 104.588 9.68C105.321 9.68 105.888 9.9 106.288 10.34C106.701 10.7667 106.908 11.32 106.908 12C106.908 12.56 106.781 13.0333 106.528 13.42C106.288 13.8067 105.968 14 105.568 14C105.314 14 105.108 13.94 104.948 13.82C104.801 13.7 104.728 13.5333 104.728 13.32C104.728 13.2267 104.741 13.12 104.768 13C104.794 12.88 104.814 12.7933 104.828 12.74C104.894 12.54 104.928 12.3533 104.928 12.18C104.928 12.0067 104.881 11.8733 104.788 11.78C104.708 11.6867 104.588 11.64 104.428 11.64C104.121 11.64 103.834 11.78 103.568 12.06C103.301 12.3267 103.088 12.6933 102.928 13.16C102.768 13.6267 102.688 14.14 102.688 14.7C102.688 16.2467 103.361 17.02 104.708 17.02C105.254 17.02 105.841 16.84 106.468 16.48C107.108 16.1067 107.734 15.5533 108.348 14.82C108.508 14.6333 108.688 14.54 108.888 14.54C109.061 14.54 109.194 14.62 109.288 14.78C109.394 14.94 109.448 15.16 109.448 15.44C109.448 15.9467 109.321 16.36 109.068 16.68C108.441 17.4533 107.688 18.0533 106.808 18.48C105.941 18.8933 105.101 19.1 104.288 19.1ZM116.751 14.54C116.924 14.54 117.058 14.62 117.151 14.78C117.258 14.94 117.311 15.16 117.311 15.44C117.311 15.9733 117.184 16.3867 116.931 16.68C116.438 17.28 115.738 17.8333 114.831 18.34C113.938 18.8467 112.978 19.1 111.951 19.1C110.551 19.1 109.464 18.72 108.691 17.96C107.918 17.2 107.531 16.16 107.531 14.84C107.531 13.92 107.724 13.0667 108.111 12.28C108.498 11.48 109.031 10.8467 109.711 10.38C110.404 9.91333 111.184 9.68 112.051 9.68C112.824 9.68 113.444 9.91333 113.911 10.38C114.378 10.8333 114.611 11.4533 114.611 12.24C114.611 13.16 114.278 13.9533 113.611 14.62C112.958 15.2733 111.844 15.7933 110.271 16.18C110.604 16.7933 111.238 17.1 112.171 17.1C112.771 17.1 113.451 16.8933 114.211 16.48C114.984 16.0533 115.651 15.5 116.211 14.82C116.371 14.6333 116.551 14.54 116.751 14.54ZM111.711 11.64C111.218 11.64 110.798 11.9267 110.451 12.5C110.118 13.0733 109.951 13.7667 109.951 14.58V14.62C110.738 14.4333 111.358 14.1533 111.811 13.78C112.264 13.4067 112.491 12.9733 112.491 12.48C112.491 12.2267 112.418 12.0267 112.271 11.88C112.138 11.72 111.951 11.64 111.711 11.64ZM123.263 14.54C123.436 14.54 123.569 14.62 123.663 14.78C123.769 14.94 123.823 15.16 123.823 15.44C123.823 15.9733 123.696 16.3867 123.443 16.68C122.869 17.3867 122.243 17.9667 121.563 18.42C120.896 18.8733 120.136 19.1 119.283 19.1C118.109 19.1 117.236 18.5667 116.663 17.5C116.103 16.4333 115.823 15.0533 115.823 13.36C115.823 11.7333 116.029 9.88 116.443 7.8C116.869 5.72 117.489 3.93333 118.303 2.44C119.129 0.946665 120.109 0.199999 121.243 0.199999C121.883 0.199999 122.383 0.499999 122.743 1.1C123.116 1.68667 123.303 2.53333 123.303 3.64C123.303 5.22667 122.863 7.06667 121.983 9.16C121.103 11.2533 119.909 13.3267 118.403 15.38C118.496 15.9267 118.649 16.32 118.863 16.56C119.076 16.7867 119.356 16.9 119.703 16.9C120.249 16.9 120.729 16.7467 121.143 16.44C121.556 16.12 122.083 15.58 122.723 14.82C122.883 14.6333 123.063 14.54 123.263 14.54ZM120.803 2.18C120.496 2.18 120.149 2.73333 119.763 3.84C119.376 4.94667 119.036 6.32 118.743 7.96C118.449 9.6 118.289 11.1733 118.263 12.68C119.209 11.12 119.963 9.56 120.523 8C121.083 6.42667 121.363 4.99333 121.363 3.7C121.363 2.68667 121.176 2.18 120.803 2.18ZM129.786 14.54C129.959 14.54 130.093 14.62 130.186 14.78C130.293 14.94 130.346 15.16 130.346 15.44C130.346 15.9733 130.219 16.3867 129.966 16.68C129.393 17.3867 128.766 17.9667 128.086 18.42C127.419 18.8733 126.659 19.1 125.806 19.1C124.633 19.1 123.759 18.5667 123.186 17.5C122.626 16.4333 122.346 15.0533 122.346 13.36C122.346 11.7333 122.553 9.88 122.966 7.8C123.393 5.72 124.013 3.93333 124.826 2.44C125.653 0.946665 126.633 0.199999 127.766 0.199999C128.406 0.199999 128.906 0.499999 129.266 1.1C129.639 1.68667 129.826 2.53333 129.826 3.64C129.826 5.22667 129.386 7.06667 128.506 9.16C127.626 11.2533 126.433 13.3267 124.926 15.38C125.019 15.9267 125.173 16.32 125.386 16.56C125.599 16.7867 125.879 16.9 126.226 16.9C126.773 16.9 127.253 16.7467 127.666 16.44C128.079 16.12 128.606 15.58 129.246 14.82C129.406 14.6333 129.586 14.54 129.786 14.54ZM127.326 2.18C127.019 2.18 126.673 2.73333 126.286 3.84C125.899 4.94667 125.559 6.32 125.266 7.96C124.973 9.6 124.813 11.1733 124.786 12.68C125.733 11.12 126.486 9.56 127.046 8C127.606 6.42667 127.886 4.99333 127.886 3.7C127.886 2.68667 127.699 2.18 127.326 2.18ZM137.65 14.54C137.823 14.54 137.956 14.62 138.05 14.78C138.156 14.94 138.21 15.16 138.21 15.44C138.21 15.9733 138.083 16.3867 137.83 16.68C137.336 17.28 136.636 17.8333 135.73 18.34C134.836 18.8467 133.876 19.1 132.85 19.1C131.45 19.1 130.363 18.72 129.59 17.96C128.816 17.2 128.43 16.16 128.43 14.84C128.43 13.92 128.623 13.0667 129.01 12.28C129.396 11.48 129.93 10.8467 130.61 10.38C131.303 9.91333 132.083 9.68 132.95 9.68C133.723 9.68 134.343 9.91333 134.81 10.38C135.276 10.8333 135.51 11.4533 135.51 12.24C135.51 13.16 135.176 13.9533 134.51 14.62C133.856 15.2733 132.743 15.7933 131.17 16.18C131.503 16.7933 132.136 17.1 133.07 17.1C133.67 17.1 134.35 16.8933 135.11 16.48C135.883 16.0533 136.55 15.5 137.11 14.82C137.27 14.6333 137.45 14.54 137.65 14.54ZM132.61 11.64C132.116 11.64 131.696 11.9267 131.35 12.5C131.016 13.0733 130.85 13.7667 130.85 14.58V14.62C131.636 14.4333 132.256 14.1533 132.71 13.78C133.163 13.4067 133.39 12.9733 133.39 12.48C133.39 12.2267 133.316 12.0267 133.17 11.88C133.036 11.72 132.85 11.64 132.61 11.64ZM138.001 19.1C137.494 19.1 137.134 18.8333 136.921 18.3C136.721 17.7667 136.621 16.9133 136.621 15.74C136.621 14.0067 136.868 12.36 137.361 10.8C137.481 10.4133 137.674 10.1333 137.941 9.96C138.221 9.77333 138.608 9.68 139.101 9.68C139.368 9.68 139.554 9.71333 139.661 9.78C139.768 9.84667 139.821 9.97333 139.821 10.16C139.821 10.3733 139.721 10.8533 139.521 11.6C139.388 12.1333 139.281 12.6 139.201 13C139.121 13.4 139.054 13.8933 139.001 14.48C139.441 13.3333 139.934 12.4 140.481 11.68C141.028 10.96 141.561 10.4467 142.081 10.14C142.614 9.83333 143.101 9.68 143.541 9.68C144.408 9.68 144.841 10.1133 144.841 10.98C144.841 11.5 144.694 12.44 144.401 13.8C144.148 14.96 144.021 15.7267 144.021 16.1C144.021 16.6333 144.214 16.9 144.601 16.9C144.868 16.9 145.181 16.74 145.541 16.42C145.914 16.0867 146.408 15.5533 147.021 14.82C147.181 14.6333 147.361 14.54 147.561 14.54C147.734 14.54 147.868 14.62 147.961 14.78C148.068 14.94 148.121 15.16 148.121 15.44C148.121 15.9733 147.994 16.3867 147.741 16.68C147.168 17.3867 146.548 17.9667 145.881 18.42C145.228 18.8733 144.481 19.1 143.641 19.1C142.961 19.1 142.448 18.9067 142.101 18.52C141.754 18.12 141.581 17.5467 141.581 16.8C141.581 16.4267 141.674 15.76 141.861 14.8C142.034 13.96 142.121 13.38 142.121 13.06C142.121 12.8467 142.048 12.74 141.901 12.74C141.728 12.74 141.481 12.9667 141.161 13.42C140.854 13.86 140.534 14.4467 140.201 15.18C139.881 15.9133 139.621 16.6867 139.421 17.5C139.274 18.1267 139.101 18.5533 138.901 18.78C138.714 18.9933 138.414 19.1 138.001 19.1ZM150.323 19.1C149.016 19.1 147.996 18.7333 147.263 18C146.543 17.2533 146.183 16.2733 146.183 15.06C146.183 13.98 146.396 13.0333 146.823 12.22C147.25 11.4067 147.803 10.78 148.483 10.34C149.163 9.9 149.876 9.68 150.623 9.68C151.356 9.68 151.923 9.9 152.323 10.34C152.736 10.7667 152.943 11.32 152.943 12C152.943 12.56 152.816 13.0333 152.563 13.42C152.323 13.8067 152.003 14 151.603 14C151.35 14 151.143 13.94 150.983 13.82C150.836 13.7 150.763 13.5333 150.763 13.32C150.763 13.2267 150.776 13.12 150.803 13C150.83 12.88 150.85 12.7933 150.863 12.74C150.93 12.54 150.963 12.3533 150.963 12.18C150.963 12.0067 150.916 11.8733 150.823 11.78C150.743 11.6867 150.623 11.64 150.463 11.64C150.156 11.64 149.87 11.78 149.603 12.06C149.336 12.3267 149.123 12.6933 148.963 13.16C148.803 13.6267 148.723 14.14 148.723 14.7C148.723 16.2467 149.396 17.02 150.743 17.02C151.29 17.02 151.876 16.84 152.503 16.48C153.143 16.1067 153.77 15.5533 154.383 14.82C154.543 14.6333 154.723 14.54 154.923 14.54C155.096 14.54 155.23 14.62 155.323 14.78C155.43 14.94 155.483 15.16 155.483 15.44C155.483 15.9467 155.356 16.36 155.103 16.68C154.476 17.4533 153.723 18.0533 152.843 18.48C151.976 18.8933 151.136 19.1 150.323 19.1ZM161.026 15.14C161.2 15.14 161.333 15.22 161.426 15.38C161.533 15.54 161.586 15.76 161.586 16.04C161.586 16.52 161.473 16.9333 161.246 17.28C160.873 17.8533 160.38 18.3 159.766 18.62C159.166 18.94 158.446 19.1 157.606 19.1C156.326 19.1 155.333 18.72 154.626 17.96C153.92 17.1867 153.566 16.1467 153.566 14.84C153.566 13.92 153.76 13.0667 154.146 12.28C154.533 11.48 155.066 10.8467 155.746 10.38C156.44 9.91333 157.22 9.68 158.086 9.68C158.86 9.68 159.48 9.91333 159.946 10.38C160.413 10.8333 160.646 11.4533 160.646 12.24C160.646 13.16 160.313 13.9533 159.646 14.62C158.993 15.2733 157.873 15.7933 156.286 16.18C156.606 16.7933 157.146 17.1 157.906 17.1C158.453 17.1 158.9 16.9733 159.246 16.72C159.606 16.4667 160.02 16.04 160.486 15.44C160.646 15.24 160.826 15.14 161.026 15.14ZM157.746 11.64C157.253 11.64 156.833 11.9267 156.486 12.5C156.153 13.0733 155.986 13.7667 155.986 14.58V14.62C156.773 14.4333 157.393 14.1533 157.846 13.78C158.3 13.4067 158.526 12.9733 158.526 12.48C158.526 12.2267 158.453 12.0267 158.306 11.88C158.173 11.72 157.986 11.64 157.746 11.64Z" fill="#0072BC"/>
</svg>
