<svg width="193" height="67" viewBox="0 0 193 67" fill="none" xmlns="http://www.w3.org/2000/svg">
<path d="M3.18779 2.29728V11.7458H4.31114C5.34158 11.7458 6.00038 11.1962 6.28755 10.0969C6.42269 9.59054 6.49026 8.5654 6.49026 7.02153C6.49026 5.47766 6.42269 4.45253 6.28755 3.94614C6.00038 2.8469 5.34158 2.29728 4.31114 2.29728H3.18779ZM0.544115 0.222318H4.65743C6.45929 0.222318 7.684 0.904709 8.33154 2.26949C8.78764 3.23904 9.01569 4.83541 9.01569 7.05858C9.01569 9.27559 8.78764 10.8689 8.33154 11.8384C7.684 13.2032 6.45929 13.8856 4.65743 13.8856H0.544115V0.222318Z" fill="#0571B9"/>
<path d="M13.0868 7.9108H15.2659V7.11416C15.2659 6.16314 14.9083 5.68763 14.1932 5.68763C13.4556 5.68763 13.0868 6.32061 13.0868 7.58659V7.9108ZM15.2997 10.3563H17.7238C17.7238 12.8512 16.5469 14.0986 14.1932 14.0986C12.7123 14.0986 11.71 13.62 11.1864 12.6628C10.7922 11.9403 10.5951 10.6898 10.5951 8.91123C10.5951 7.32413 10.8288 6.16623 11.2962 5.43752C11.8593 4.56677 12.8249 4.1314 14.1932 4.1314C16.5469 4.1314 17.7238 5.40973 17.7238 7.96638V9.41145H13.0868V10.3933C13.0868 11.7581 13.45 12.4405 14.1763 12.4405C14.9252 12.4405 15.2997 11.8044 15.2997 10.5323V10.3563Z" fill="#0571B9"/>
<path d="M19.1765 13.8856V0.222318H21.5837V13.8856H19.1765Z" fill="#0571B9"/>
<path d="M25.773 13.8856H23.3321V0.222318H25.773V5.34489C26.1784 4.5359 26.826 4.1314 27.7156 4.1314C29.281 4.1314 30.0637 4.96818 30.0637 6.64174V13.8856H27.6227V7.3828C27.6227 6.88258 27.589 6.52749 27.5214 6.31753C27.4088 5.947 27.1723 5.76173 26.8119 5.76173C26.1193 5.76173 25.773 6.21254 25.773 7.11416V13.8856Z" fill="#0571B9"/>
<path d="M34.2193 4.36298V13.8856H31.7783V4.36298H34.2193ZM34.2193 0.222318V2.48255H31.7783V0.222318H34.2193Z" fill="#0571B9"/>
<path d="M40.1063 9.67082H42.7584V10.0321C42.7584 10.6743 42.8457 11.1437 43.0202 11.4401C43.2398 11.8044 43.6227 11.9866 44.1689 11.9866C45.0361 11.9866 45.4696 11.4864 45.4696 10.486C45.4696 9.83756 44.9178 9.11811 43.8142 8.32765C43.7748 8.29677 43.7213 8.25972 43.6537 8.21649C43.13 7.85831 42.4093 7.29943 41.4915 6.53984C41.0579 6.10138 40.7538 5.69071 40.5793 5.30783C40.3934 4.8879 40.3005 4.36916 40.3005 3.75161C40.3005 2.54121 40.6891 1.59945 41.4661 0.926323C42.1812 0.308775 43.1075 0 44.2449 0C46.745 0 47.9951 1.25054 47.9951 3.75161V4.11288H45.419V4.03877C45.419 2.74809 44.9966 2.10275 44.152 2.10275C43.7635 2.10275 43.4566 2.23244 43.2314 2.49181C43.0061 2.74501 42.8935 3.08466 42.8935 3.51077C42.8935 4.23947 43.6143 5.07625 45.0558 6.0211C45.3148 6.19402 45.602 6.38854 45.9173 6.60469C46.6437 7.11108 47.1645 7.58659 47.4798 8.03122C47.8909 8.6179 48.0964 9.30955 48.0964 10.1062C48.0964 12.7802 46.6915 14.1172 43.8817 14.1172C42.6035 14.1172 41.6576 13.8084 41.0438 13.1908C40.4075 12.5548 40.0894 11.542 40.0894 10.1525C40.0894 10.0969 40.0922 10.0166 40.0978 9.91166C40.1035 9.80668 40.1063 9.7264 40.1063 9.67082Z" fill="#0571B9"/>
<path d="M49.8279 13.8856V0.222318H52.2435V8.25354L54.4649 4.36298H56.8974L54.3551 8.51291L57.193 13.8856H54.5493L52.2435 8.89271V13.8856H49.8279Z" fill="#0571B9"/>
<path d="M60.5039 4.36298V13.8856H58.063V4.36298H60.5039ZM60.5039 0.222318V2.48255H58.063V0.222318H60.5039Z" fill="#0571B9"/>
<path d="M62.1847 13.8856V0.222318H64.5919V13.8856H62.1847Z" fill="#0571B9"/>
<path d="M66.2896 13.8856V0.222318H68.6968V13.8856H66.2896Z" fill="#0571B9"/>
<path d="M74.6852 6.84553V6.66027C74.6852 4.97436 75.8226 4.1314 78.0974 4.1314C80.2315 4.1314 81.2986 5.05464 81.2986 6.90111V11.6439C81.2986 12.4838 81.3549 13.231 81.4675 13.8856H79.3052L79.1194 12.8018C78.6295 13.5737 77.8497 13.9597 76.7798 13.9597C76.0197 13.9597 75.4312 13.6664 75.0146 13.0797C74.6373 12.5424 74.4487 11.8446 74.4487 10.9862C74.4487 9.91784 74.7527 9.12429 75.3609 8.60554C76.0647 8.0127 77.0445 7.71627 78.3001 7.71627H79.0688V7.2809C79.0688 6.73746 79.0237 6.34223 78.9336 6.09521C78.7872 5.69998 78.5085 5.50236 78.0974 5.50236C77.326 5.50236 76.9403 5.95008 76.9403 6.84553H74.6852ZM79.0688 9.16134C78.3086 9.16134 77.7708 9.2478 77.4555 9.42071C76.9938 9.6739 76.7629 10.1679 76.7629 10.9028C76.7629 11.8909 77.0754 12.3849 77.7005 12.3849C78.6127 12.3849 79.0688 11.5883 79.0688 9.99503V9.16134Z" fill="#0571B9"/>
<path d="M85.5639 13.8856H83.1229V6.06742C83.1229 5.33254 83.0976 4.76439 83.0469 4.36298H85.4963L85.5639 5.34489C85.9693 4.5359 86.6169 4.1314 87.5065 4.1314C89.0719 4.1314 89.8546 4.96818 89.8546 6.64174V13.8856H87.4136V7.3828C87.4136 6.88258 87.3798 6.52749 87.3123 6.31753C87.1997 5.947 86.9632 5.76173 86.6028 5.76173C85.9102 5.76173 85.5639 6.21254 85.5639 7.11416V13.8856Z" fill="#0571B9"/>
<path d="M95.8683 8.00343C95.8683 6.55219 95.5276 5.82657 94.8463 5.82657C94.3395 5.82657 94.0214 6.25886 93.8919 7.12343C93.8525 7.39515 93.8328 8.02505 93.8328 9.01313V9.23544C93.8328 10.3903 93.8412 11.0387 93.8581 11.1807C93.9707 12.0576 94.2889 12.4961 94.8125 12.4961C95.3024 12.4961 95.6206 12.1966 95.767 11.5976C95.8345 11.3197 95.8683 10.804 95.8683 10.0506V8.00343ZM95.8852 5.1411V0.222318H98.2586V11.7643C98.2586 12.4127 98.2811 13.1137 98.3262 13.8671H95.9528L95.8683 12.9593C95.4967 13.7189 94.8576 14.0986 93.951 14.0986C93.2415 14.0986 92.67 13.8516 92.2364 13.3576C91.8535 12.9191 91.6086 12.2182 91.5016 11.2548C91.4509 10.8164 91.4256 10.0506 91.4256 8.95755C91.4256 7.54336 91.5326 6.49662 91.7465 5.81731C92.1069 4.68102 92.8023 4.11288 93.8328 4.11288C94.7055 4.11288 95.3897 4.45562 95.8852 5.1411Z" fill="#0571B9"/>
<path d="M0.366744 36.8506V23.1873H7.09839V25.2994H2.99352V28.56H6.76899V30.6628H2.99352V34.646H7.25043V36.8506H0.366744Z" fill="#0571B9"/>
<path d="M11.2202 36.8506H8.77919V29.0324C8.77919 28.2976 8.75385 27.7294 8.70318 27.328H11.1526L11.2202 28.3099C11.6256 27.5009 12.2731 27.0964 13.1628 27.0964C14.7282 27.0964 15.5108 27.9332 15.5108 29.6068V36.8506H13.0699V30.3478C13.0699 29.8476 13.0361 29.4925 12.9685 29.2825C12.8559 28.912 12.6194 28.7268 12.259 28.7268C11.5665 28.7268 11.2202 29.1776 11.2202 30.0792V36.8506Z" fill="#0571B9"/>
<path d="M21.4908 36.795C20.7588 36.8938 20.176 36.9432 19.7424 36.9432C18.2784 36.9432 17.5464 36.1096 17.5464 34.4422V28.9398H16.4061V27.328H17.5464V25.7162L19.9367 24.5583V27.328H21.4908V28.9398H19.9367V34.0994C19.9367 34.5502 19.9845 34.8467 20.0803 34.9887C20.1985 35.1678 20.4491 35.2573 20.832 35.2573C20.9502 35.2573 21.1304 35.2481 21.3725 35.2295C21.4063 35.2295 21.4457 35.2265 21.4908 35.2203V36.795Z" fill="#0571B9"/>
<path d="M22.555 36.8506V27.3095H24.6835L24.8439 28.56C25.1705 27.5843 25.88 27.0964 26.9724 27.0964H27.1244V29.4122H26.9048C26.1953 29.4122 25.6942 29.6068 25.4014 29.9958C25.1311 30.354 24.996 30.9314 24.996 31.728V36.8506H22.555Z" fill="#0571B9"/>
<path d="M30.5874 30.8758H32.7665V30.0792C32.7665 29.1282 32.4089 28.6526 31.6938 28.6526C30.9562 28.6526 30.5874 29.2856 30.5874 30.5516V30.8758ZM32.8003 33.3213H35.2244C35.2244 35.8162 34.0475 37.0637 31.6938 37.0637C30.2129 37.0637 29.2106 36.5851 28.687 35.6279C28.2928 34.9053 28.0957 33.6548 28.0957 31.8763C28.0957 30.2892 28.3294 29.1312 28.7968 28.4025C29.3599 27.5318 30.3255 27.0964 31.6938 27.0964C34.0475 27.0964 35.2244 28.3748 35.2244 30.9314V32.3765H30.5874V33.3584C30.5874 34.7232 30.9506 35.4055 31.6769 35.4055C32.4258 35.4055 32.8003 34.7695 32.8003 33.4973V33.3213Z" fill="#0571B9"/>
<path d="M39.1096 31.1259V33.1916C39.1096 34.6429 39.4503 35.3685 40.1316 35.3685C40.6384 35.3685 40.9537 34.9393 41.0776 34.0809C41.117 33.8277 41.1367 33.1947 41.1367 32.1819V31.9596C41.1367 30.8172 41.1255 30.1687 41.1029 30.0143C40.9903 29.1312 40.6722 28.6897 40.1485 28.6897C39.6643 28.6897 39.3489 28.9861 39.2025 29.579C39.1406 29.8569 39.1096 30.3725 39.1096 31.1259ZM36.7193 40.454V29.4308C36.7193 28.8626 36.694 28.1617 36.6433 27.328H39.0252L39.1096 28.2358C39.4756 27.4762 40.1147 27.0964 41.0269 27.0964C41.7364 27.0964 42.3079 27.3434 42.7415 27.8375C43.1244 28.2759 43.3693 28.9769 43.4763 29.9402C43.527 30.3787 43.5523 31.1445 43.5523 32.2375C43.5523 33.6764 43.4425 34.7324 43.2229 35.4055C42.8569 36.5233 42.1446 37.0822 41.086 37.0822C40.2696 37.0822 39.6164 36.7395 39.1265 36.054V40.454H36.7193Z" fill="#0571B9"/>
<path d="M45.1402 36.8506V27.3095H47.2687L47.4292 28.56C47.7557 27.5843 48.4652 27.0964 49.5576 27.0964H49.7096V29.4122H49.49C48.7806 29.4122 48.2794 29.6068 47.9866 29.9958C47.7163 30.354 47.5812 30.9314 47.5812 31.728V36.8506H45.1402Z" fill="#0571B9"/>
<path d="M53.1726 30.8758H55.3517V30.0792C55.3517 29.1282 54.9942 28.6526 54.2791 28.6526C53.5414 28.6526 53.1726 29.2856 53.1726 30.5516V30.8758ZM55.3855 33.3213H57.8096C57.8096 35.8162 56.6327 37.0637 54.2791 37.0637C52.7981 37.0637 51.7959 36.5851 51.2722 35.6279C50.878 34.9053 50.681 33.6548 50.681 31.8763C50.681 30.2892 50.9146 29.1312 51.382 28.4025C51.9451 27.5318 52.9108 27.0964 54.2791 27.0964C56.6327 27.0964 57.8096 28.3748 57.8096 30.9314V32.3765H53.1726V33.3584C53.1726 34.7232 53.5358 35.4055 54.2622 35.4055C55.0111 35.4055 55.3855 34.7695 55.3855 33.4973V33.3213Z" fill="#0571B9"/>
<path d="M61.7455 36.8506H59.3046V29.0324C59.3046 28.2976 59.2792 27.7294 59.2285 27.328H61.678L61.7455 28.3099C62.1509 27.5009 62.7985 27.0964 63.6882 27.0964C65.2535 27.0964 66.0362 27.9332 66.0362 29.6068V36.8506H63.5953V30.3478C63.5953 29.8476 63.5615 29.4925 63.4939 29.2825C63.3813 28.912 63.1448 28.7268 62.7844 28.7268C62.0918 28.7268 61.7455 29.1776 61.7455 30.0792V36.8506Z" fill="#0571B9"/>
<path d="M70.0989 30.8758H72.278V30.0792C72.278 29.1282 71.9204 28.6526 71.2053 28.6526C70.4677 28.6526 70.0989 29.2856 70.0989 30.5516V30.8758ZM72.3118 33.3213H74.7358C74.7358 35.8162 73.559 37.0637 71.2053 37.0637C69.7244 37.0637 68.7221 36.5851 68.1984 35.6279C67.8043 34.9053 67.6072 33.6548 67.6072 31.8763C67.6072 30.2892 67.8409 29.1312 68.3083 28.4025C68.8713 27.5318 69.837 27.0964 71.2053 27.0964C73.559 27.0964 74.7358 28.3748 74.7358 30.9314V32.3765H70.0989V33.3584C70.0989 34.7232 70.462 35.4055 71.1884 35.4055C71.9373 35.4055 72.3118 34.7695 72.3118 33.4973V33.3213Z" fill="#0571B9"/>
<path d="M80.4793 27.328H82.9371V35.5815C82.9371 36.0941 82.9597 36.511 83.0047 36.8321H80.5637L80.4793 35.8224C80.0682 36.6499 79.4291 37.0637 78.562 37.0637C76.991 37.0637 76.2055 36.2207 76.2055 34.5348V27.328H78.6464V33.8123C78.6464 34.3187 78.6774 34.6707 78.7393 34.8683C78.852 35.2388 79.0856 35.4241 79.4404 35.4241C80.133 35.4241 80.4793 34.9763 80.4793 34.0809V27.328Z" fill="#0571B9"/>
<path d="M84.7531 36.8506V27.3095H86.8815L87.042 28.56C87.3686 27.5843 88.0781 27.0964 89.1704 27.0964H89.3225V29.4122H89.1029C88.3934 29.4122 87.8923 29.6068 87.5994 29.9958C87.3292 30.354 87.194 30.9314 87.194 31.728V36.8506H84.7531Z" fill="#0571B9"/>
<path d="M90.1756 33.7011H92.5405V33.8956C92.5405 34.9146 92.8361 35.4241 93.4274 35.4241C94.1537 35.4241 94.5169 35.0968 94.5169 34.4422C94.5169 33.9296 93.9679 33.3615 92.8699 32.7377L92.2956 32.4135C91.5523 31.9751 91.0652 31.6354 90.8344 31.3946C90.4064 30.9561 90.1924 30.4034 90.1924 29.7364C90.1924 28.8534 90.5275 28.1679 91.1975 27.68C91.7719 27.2662 92.4842 27.0594 93.3344 27.0594C95.4573 27.0594 96.5187 27.9209 96.5187 29.6438C96.5187 29.6809 96.5159 29.7334 96.5102 29.8013C96.5046 29.863 96.5018 29.9124 96.5018 29.9495L94.2213 29.9402C94.2326 29.8661 94.2382 29.7673 94.2382 29.6438C94.2382 28.8842 93.9426 28.5044 93.3513 28.5044C92.7657 28.5044 92.4729 28.7823 92.4729 29.3381C92.4729 29.7457 92.9713 30.2397 93.9679 30.8202C94.4015 31.0734 94.7506 31.2865 95.0152 31.4594C95.6177 31.8546 96.0457 32.2128 96.2991 32.5339C96.6538 32.9848 96.8312 33.5251 96.8312 34.155C96.8312 36.0385 95.5924 36.9803 93.1148 36.9803C91.1384 36.9803 90.1502 36.0138 90.1502 34.0809C90.1502 33.9018 90.1587 33.7752 90.1756 33.7011Z" fill="#0571B9"/>
<path d="M100.725 36.8506H98.2839V23.1873H100.725V28.3099C101.13 27.5009 101.778 27.0964 102.668 27.0964C104.233 27.0964 105.016 27.9332 105.016 29.6068V36.8506H102.575V30.3478C102.575 29.8476 102.541 29.4925 102.473 29.2825C102.361 28.912 102.124 28.7268 101.764 28.7268C101.071 28.7268 100.725 29.1776 100.725 30.0792V36.8506Z" fill="#0571B9"/>
<path d="M109.171 27.328V36.8506H106.73V27.328H109.171ZM109.171 23.1873V25.4476H106.73V23.1873H109.171Z" fill="#0571B9"/>
<path d="M113.284 31.1259V33.1916C113.284 34.6429 113.625 35.3685 114.306 35.3685C114.813 35.3685 115.129 34.9393 115.252 34.0809C115.292 33.8277 115.312 33.1947 115.312 32.1819V31.9596C115.312 30.8172 115.3 30.1687 115.278 30.0143C115.165 29.1312 114.847 28.6897 114.323 28.6897C113.839 28.6897 113.524 28.9861 113.377 29.579C113.315 29.8569 113.284 30.3725 113.284 31.1259ZM110.894 40.454V29.4308C110.894 28.8626 110.869 28.1617 110.818 27.328H113.2L113.284 28.2358C113.65 27.4762 114.29 27.0964 115.202 27.0964C115.911 27.0964 116.483 27.3434 116.916 27.8375C117.299 28.2759 117.544 28.9769 117.651 29.9402C117.702 30.3787 117.727 31.1445 117.727 32.2375C117.727 33.6764 117.617 34.7324 117.398 35.4055C117.032 36.5233 116.319 37.0822 115.261 37.0822C114.444 37.0822 113.791 36.7395 113.301 36.054V40.454H110.894Z" fill="#0571B9"/>
<path d="M132.28 23.1873V31.7466C132.28 33.5498 131.99 34.8621 131.41 35.6834C130.751 36.6159 129.628 37.0822 128.04 37.0822C126.559 37.0822 125.472 36.6623 124.78 35.8224C124.127 35.0196 123.8 33.7937 123.8 32.1449V23.1873H126.393V31.4038C126.393 32.6266 126.441 33.417 126.537 33.7752C126.751 34.5966 127.263 35.0072 128.074 35.0072C128.84 35.0072 129.335 34.5811 129.56 33.7289C129.662 33.3337 129.712 32.5586 129.712 31.4038V23.1873H132.28Z" fill="#0571B9"/>
<path d="M136.714 36.8506H134.273V29.0324C134.273 28.2976 134.248 27.7294 134.197 27.328H136.647L136.714 28.3099C137.12 27.5009 137.767 27.0964 138.657 27.0964C140.222 27.0964 141.005 27.9332 141.005 29.6068V36.8506H138.564V30.3478C138.564 29.8476 138.53 29.4925 138.463 29.2825C138.35 28.912 138.114 28.7268 137.753 28.7268C137.061 28.7268 136.714 29.1776 136.714 30.0792V36.8506Z" fill="#0571B9"/>
<path d="M145.169 27.328V36.8506H142.728V27.328H145.169ZM145.169 23.1873V25.4476H142.728V23.1873H145.169Z" fill="#0571B9"/>
<path d="M148.463 36.8506L146.25 27.328H148.742L149.358 31.163C149.538 32.2684 149.691 33.6579 149.814 35.3314C149.938 34.294 150.186 32.9909 150.558 31.4224L150.608 31.2093L151.537 27.328H153.894L151.107 36.8506H148.463Z" fill="#0571B9"/>
<path d="M157.027 30.8758H159.207V30.0792C159.207 29.1282 158.849 28.6526 158.134 28.6526C157.396 28.6526 157.027 29.2856 157.027 30.5516V30.8758ZM159.24 33.3213H161.664C161.664 35.8162 160.488 37.0637 158.134 37.0637C156.653 37.0637 155.651 36.5851 155.127 35.6279C154.733 34.9053 154.536 33.6548 154.536 31.8763C154.536 30.2892 154.77 29.1312 155.237 28.4025C155.8 27.5318 156.766 27.0964 158.134 27.0964C160.488 27.0964 161.664 28.3748 161.664 30.9314V32.3765H157.027V33.3584C157.027 34.7232 157.391 35.4055 158.117 35.4055C158.866 35.4055 159.24 34.7695 159.24 33.4973V33.3213Z" fill="#0571B9"/>
<path d="M163.168 36.8506V27.3095H165.296L165.457 28.56C165.783 27.5843 166.493 27.0964 167.585 27.0964H167.737V29.4122H167.518C166.808 29.4122 166.307 29.6068 166.014 29.9958C165.744 30.354 165.609 30.9314 165.609 31.728V36.8506H163.168Z" fill="#0571B9"/>
<path d="M168.59 33.7011H170.955V33.8956C170.955 34.9146 171.251 35.4241 171.842 35.4241C172.569 35.4241 172.932 35.0968 172.932 34.4422C172.932 33.9296 172.383 33.3615 171.285 32.7377L170.71 32.4135C169.967 31.9751 169.48 31.6354 169.249 31.3946C168.821 30.9561 168.607 30.4034 168.607 29.7364C168.607 28.8534 168.942 28.1679 169.612 27.68C170.187 27.2662 170.899 27.0594 171.749 27.0594C173.872 27.0594 174.934 27.9209 174.934 29.6438C174.934 29.6809 174.931 29.7334 174.925 29.8013C174.919 29.863 174.917 29.9124 174.917 29.9495L172.636 29.9402C172.647 29.8661 172.653 29.7673 172.653 29.6438C172.653 28.8842 172.357 28.5044 171.766 28.5044C171.181 28.5044 170.888 28.7823 170.888 29.3381C170.888 29.7457 171.386 30.2397 172.383 30.8202C172.816 31.0734 173.165 31.2865 173.43 31.4594C174.033 31.8546 174.461 32.2128 174.714 32.5339C175.069 32.9848 175.246 33.5251 175.246 34.155C175.246 36.0385 174.007 36.9803 171.53 36.9803C169.553 36.9803 168.565 36.0138 168.565 34.0809C168.565 33.9018 168.573 33.7752 168.59 33.7011Z" fill="#0571B9"/>
<path d="M179.072 27.328V36.8506H176.631V27.328H179.072ZM179.072 23.1873V25.4476H176.631V23.1873H179.072Z" fill="#0571B9"/>
<path d="M184.993 36.795C184.261 36.8938 183.678 36.9432 183.245 36.9432C181.781 36.9432 181.049 36.1096 181.049 34.4422V28.9398H179.908V27.328H181.049V25.7162L183.439 24.5583V27.328H184.993V28.9398H183.439V34.0994C183.439 34.5502 183.487 34.8467 183.582 34.9887C183.701 35.1678 183.951 35.2573 184.334 35.2573C184.452 35.2573 184.633 35.2481 184.875 35.2295C184.909 35.2295 184.948 35.2265 184.993 35.2203V36.795Z" fill="#0571B9"/>
<path d="M186.893 40.454L187.839 37.0822L185.314 27.328H187.755L189.073 34.155L190.627 27.328H193L189.385 40.454H186.893Z" fill="#0571B9"/>
<path d="M5.16376 58.4349C5.14479 57.0516 4.5663 56.36 3.42828 56.36C2.46571 56.36 1.85402 56.919 1.59323 58.0371C1.48417 58.5051 1.42964 59.501 1.42964 61.0247C1.42964 62.5068 1.50076 63.5157 1.64301 64.0514C1.937 65.1539 2.58425 65.7051 3.58476 65.7051C3.99729 65.7051 4.55208 65.6297 5.24911 65.4789V62.0778H3.79103V60.7517H6.61473V66.5164C5.3724 66.8388 4.35766 67 3.57053 67C2.36613 67 1.49365 66.675 0.953091 66.0249C0.526334 65.5101 0.2442 64.6832 0.106689 63.5443C0.0355631 62.9359 0 62.0362 0 60.8453C0 58.7495 0.234716 57.296 0.704149 56.4848C1.22574 55.5799 2.14801 55.1275 3.47096 55.1275C4.44776 55.1275 5.20644 55.4031 5.747 55.9543C6.30652 56.5264 6.58628 57.3428 6.58628 58.4037V58.4349H5.16376Z" fill="#F4981D"/>
<path d="M8.16529 62.7799C8.16529 61.4954 8.33125 60.5281 8.66317 59.878C9.09467 59.0304 9.84623 58.6065 10.9179 58.6065C11.9942 58.6065 12.7458 59.033 13.1726 59.8858C13.495 60.5255 13.6562 61.4954 13.6562 62.7955C13.6562 64.0904 13.495 65.0628 13.1726 65.7129C12.7411 66.571 11.9895 67 10.9179 67C9.83675 67 9.08044 66.571 8.64894 65.7129C8.3265 65.0628 8.16529 64.0852 8.16529 62.7799ZM10.9179 59.7766C10.292 59.7766 9.86757 60.1355 9.64471 60.8531C9.51194 61.2847 9.44556 61.9322 9.44556 62.7955C9.44556 63.6743 9.50957 64.3244 9.6376 64.7456C9.85572 65.4685 10.2825 65.8299 10.9179 65.8299C11.5438 65.8299 11.9658 65.4711 12.1839 64.7534C12.3119 64.3322 12.376 63.6847 12.376 62.8111C12.376 61.927 12.3143 61.2769 12.191 60.8609C11.9729 60.1381 11.5485 59.7766 10.9179 59.7766Z" fill="#F4981D"/>
<path d="M16.7147 66.805L14.4244 58.7859H15.8825L17.0347 63.4039C17.2244 64.158 17.3761 64.9666 17.4899 65.8299C17.6464 65.0862 17.8195 64.3582 18.0091 63.6457L18.0732 63.4117L19.2467 58.7859H20.5626L18.2723 66.805H16.7147Z" fill="#F4981D"/>
<path d="M23.1729 56.516V58.7859H24.631V59.7766H23.1729V64.5818C23.1729 64.9822 23.2227 65.2631 23.3223 65.4243C23.4456 65.6219 23.6779 65.7207 24.0193 65.7207C24.043 65.7207 24.1189 65.7155 24.2469 65.7051C24.3749 65.6947 24.4887 65.6895 24.5883 65.6895H24.631L24.6239 66.727C24.2351 66.8206 23.8937 66.8674 23.5997 66.8674C22.988 66.8674 22.5541 66.7348 22.2981 66.4696C22.0467 66.2043 21.9211 65.7363 21.9211 65.0654V59.7766H20.8115V58.7859H21.9211V57.1712L23.1729 56.516Z" fill="#F4981D"/>
<path d="M25.9113 66.805V65.0342H27.2982V66.805H25.9113Z" fill="#F4981D"/>
<path d="M32.4904 62.7799C32.4904 61.4954 32.6564 60.5281 32.9883 59.878C33.4198 59.0304 34.1714 58.6065 35.243 58.6065C36.3194 58.6065 37.071 59.033 37.4977 59.8858C37.8202 60.5255 37.9814 61.4954 37.9814 62.7955C37.9814 64.0904 37.8202 65.0628 37.4977 65.7129C37.0662 66.571 36.3147 67 35.243 67C34.1619 67 33.4056 66.571 32.9741 65.7129C32.6517 65.0628 32.4904 64.0852 32.4904 62.7799ZM35.243 59.7766C34.6171 59.7766 34.1927 60.1355 33.9699 60.8531C33.8371 61.2847 33.7707 61.9322 33.7707 62.7955C33.7707 63.6743 33.8347 64.3244 33.9628 64.7456C34.1809 65.4685 34.6076 65.8299 35.243 65.8299C35.8689 65.8299 36.2909 65.4711 36.5091 64.7534C36.6371 64.3322 36.7011 63.6847 36.7011 62.8111C36.7011 61.927 36.6395 61.2769 36.5162 60.8609C36.2981 60.1381 35.8737 59.7766 35.243 59.7766Z" fill="#F4981D"/>
<path d="M39.7026 56.8982C39.7026 56.2481 39.871 55.7957 40.2076 55.5409C40.3926 55.4005 40.6296 55.2965 40.9189 55.2289C41.2081 55.1613 41.5638 55.1275 41.9858 55.1275H42.3059V56.2117C41.7179 56.2273 41.3433 56.3366 41.1821 56.5394C41.0208 56.737 40.9402 57.166 40.9402 57.8265V58.7859H42.3059V59.7766H40.9402V66.805H39.7026V59.7766H38.6784V58.7859H39.7026V56.8982Z" fill="#F4981D"/>
<path d="M52.6476 65.4789C52.6097 64.7404 52.5907 64.0384 52.5907 63.3727V55.2991H53.871V66.805H51.9932L47.9604 56.3444C48.0363 57.3324 48.0742 58.0553 48.0742 58.5129V66.805H46.8224V55.2991H48.7926L52.6476 65.4789Z" fill="#F4981D"/>
<path d="M61.8727 63.2557V63.5131C61.8727 64.5792 61.6214 65.4191 61.1187 66.0327C60.5924 66.6672 59.8479 66.9844 58.8854 66.9844C57.9465 66.9844 57.2186 66.7218 56.7018 66.1965C56.1992 65.6869 55.872 64.8366 55.7202 63.6457C55.6491 63.0737 55.6136 62.1246 55.6136 60.7985C55.6136 58.7183 55.8364 57.2804 56.2821 56.4848C56.78 55.6007 57.643 55.1587 58.8711 55.1587C60.8247 55.1587 61.8015 56.3028 61.8015 58.5909H60.3292V58.4193C60.3292 57.0568 59.829 56.3756 58.8285 56.3756C58.1836 56.3756 57.7118 56.6408 57.4131 57.1712C57.2092 57.5301 57.0811 58.2191 57.029 59.2384C57.0147 59.54 57.0076 60.2473 57.0076 61.3602C57.0076 62.7175 57.0622 63.6379 57.1712 64.1216C57.4178 65.2085 57.9702 65.7519 58.8285 65.7519C59.8859 65.7519 60.4146 64.964 60.4146 63.3883V63.2557H61.8727Z" fill="#F4981D"/>
<path d="M65.4005 66.805V56.4848H62.8258V55.2991H69.2911V56.4848H66.7875V66.805H65.4005Z" fill="#F4981D"/>
<path d="M73.5871 62.7799C73.5871 61.4954 73.7531 60.5281 74.085 59.878C74.5165 59.0304 75.2681 58.6065 76.3397 58.6065C77.4161 58.6065 78.1677 59.033 78.5944 59.8858C78.9169 60.5255 79.0781 61.4954 79.0781 62.7955C79.0781 64.0904 78.9169 65.0628 78.5944 65.7129C78.1629 66.571 77.4114 67 76.3397 67C75.2586 67 74.5023 66.571 74.0708 65.7129C73.7484 65.0628 73.5871 64.0852 73.5871 62.7799ZM76.3397 59.7766C75.7138 59.7766 75.2894 60.1355 75.0666 60.8531C74.9338 61.2847 74.8674 61.9322 74.8674 62.7955C74.8674 63.6743 74.9314 64.3244 75.0595 64.7456C75.2776 65.4685 75.7043 65.8299 76.3397 65.8299C76.9656 65.8299 77.3877 65.4711 77.6058 64.7534C77.7338 64.3322 77.7978 63.6847 77.7978 62.8111C77.7978 61.927 77.7362 61.2769 77.6129 60.8609C77.3948 60.1381 76.9704 59.7766 76.3397 59.7766Z" fill="#F4981D"/>
<path d="M80.7993 56.8982C80.7993 56.2481 80.9677 55.7957 81.3043 55.5409C81.4893 55.4005 81.7264 55.2965 82.0156 55.2289C82.3048 55.1613 82.6605 55.1275 83.0825 55.1275H83.4026V56.2117C82.8146 56.2273 82.44 56.3366 82.2788 56.5394C82.1175 56.737 82.0369 57.166 82.0369 57.8265V58.7859H83.4026V59.7766H82.0369V66.805H80.7993V59.7766H79.7751V58.7859H80.7993V56.8982Z" fill="#F4981D"/>
<path d="M87.9191 66.805V55.2991H90.4369C91.1814 55.2991 91.7148 55.3277 92.0373 55.3849C92.6347 55.4941 93.1113 55.7333 93.4669 56.1025C93.9411 56.5914 94.2398 57.3948 94.3631 58.5129C94.4105 58.9446 94.4342 59.8338 94.4342 61.1807C94.4342 63.3649 94.2256 64.7976 93.8083 65.4789C93.4479 66.0665 92.9501 66.4514 92.3147 66.6334C91.9258 66.7478 91.2999 66.805 90.4369 66.805H87.9191ZM89.3203 65.4945H90.7926C91.7551 65.4945 92.3763 65.2319 92.6561 64.7066C92.9358 64.1762 93.0757 62.9307 93.0757 60.9701C93.0757 59.28 93.007 58.2321 92.8695 57.8265C92.6988 57.3168 92.4285 56.9684 92.0586 56.7812C91.7694 56.6252 91.3474 56.5472 90.7926 56.5472H89.3203V65.4945Z" fill="#F4981D"/>
<path d="M97.1228 62.0778H99.9465V61.3914C99.9465 60.1641 99.4984 59.5504 98.6022 59.5504C97.6444 59.5504 97.1513 60.3929 97.1228 62.0778ZM101.184 64.2932C101.146 65.1513 100.895 65.8169 100.43 66.2901C99.9655 66.7634 99.3419 67 98.5595 67C97.4595 67 96.7008 66.5658 96.2835 65.6973C95.9753 65.0628 95.8212 64.0748 95.8212 62.7331C95.8212 61.459 95.9872 60.5021 96.3191 59.8624C96.7506 59.0252 97.4974 58.6065 98.5595 58.6065C99.5079 58.6065 100.193 58.8952 100.615 59.4724C100.994 59.9976 101.184 60.7959 101.184 61.8672V63.1153H97.1157V63.5755C97.1157 65.0784 97.597 65.8299 98.5595 65.8299C99.3467 65.8299 99.8043 65.3177 99.9323 64.2932H101.184Z" fill="#F4981D"/>
<path d="M103.794 66.805H102.543V55.2991H103.794V66.805Z" fill="#F4981D"/>
<path d="M109.307 66.805V61.68C109.307 61.0247 109.25 60.5567 109.136 60.2759C108.956 59.8546 108.61 59.644 108.098 59.644C107.144 59.644 106.668 60.4865 106.668 62.1714V66.805H105.416V55.2991H106.668V59.7142C107.18 58.9654 107.83 58.5909 108.617 58.5909C109.224 58.5909 109.7 58.7859 110.046 59.176C110.397 59.5608 110.573 60.0861 110.573 60.7517V66.805H109.307Z" fill="#F4981D"/>
<path d="M112.258 56.7734V55.2991H113.468V56.7734H112.258ZM112.258 66.805V58.7859H113.468V66.805H112.258Z" fill="#F4981D"/>
</svg>
