<svg width="209" height="57" viewBox="0 0 209 57" fill="none" xmlns="http://www.w3.org/2000/svg">
<path d="M4.54102 2.7832V12.7441H5.83984C7.03125 12.7441 7.79297 12.1647 8.125 11.0059C8.28125 10.472 8.35938 9.39128 8.35938 7.76367C8.35938 6.13607 8.28125 5.05534 8.125 4.52148C7.79297 3.36263 7.03125 2.7832 5.83984 2.7832H4.54102ZM1.48438 0.595703H6.24023C8.32357 0.595703 9.73958 1.3151 10.4883 2.75391C11.0156 3.77604 11.2793 5.45898 11.2793 7.80273C11.2793 10.14 11.0156 11.8197 10.4883 12.8418C9.73958 14.2806 8.32357 15 6.24023 15H1.48438V0.595703Z" fill="#0A6EB3"/>
<path d="M15.3863 8.70117H17.9059V7.86133C17.9059 6.85872 17.4924 6.35742 16.6656 6.35742C15.8128 6.35742 15.3863 7.02474 15.3863 8.35938V8.70117ZM17.9449 11.2793H20.7477C20.7477 13.9095 19.387 15.2246 16.6656 15.2246C14.9534 15.2246 13.7945 14.7201 13.1891 13.7109C12.7333 12.9492 12.5055 11.6309 12.5055 9.75586C12.5055 8.08268 12.7757 6.86198 13.316 6.09375C13.9671 5.17578 15.0836 4.7168 16.6656 4.7168C19.387 4.7168 20.7477 6.06445 20.7477 8.75977V10.2832H15.3863V11.3184C15.3863 12.7572 15.8062 13.4766 16.6461 13.4766C17.512 13.4766 17.9449 12.806 17.9449 11.4648V11.2793Z" fill="#0A6EB3"/>
<path d="M21.8273 15V0.595703H24.6105V15H21.8273Z" fill="#0A6EB3"/>
<path d="M28.8543 15H26.032V0.595703H28.8543V5.99609C29.323 5.14323 30.0717 4.7168 31.1004 4.7168C32.9103 4.7168 33.8152 5.59896 33.8152 7.36328V15H30.993V8.14453C30.993 7.61719 30.9539 7.24284 30.8758 7.02148C30.7456 6.63086 30.4721 6.43555 30.0555 6.43555C29.2547 6.43555 28.8543 6.91081 28.8543 7.86133V15Z" fill="#0A6EB3"/>
<path d="M38.0199 4.96094V15H35.1977V4.96094H38.0199ZM38.0199 0.595703V2.97852H35.1977V0.595703H38.0199Z" fill="#0A6EB3"/>
<path d="M43.6266 10.5566H46.693V10.9375C46.693 11.6146 46.7939 12.1094 46.9957 12.4219C47.2496 12.806 47.6923 12.998 48.3238 12.998C49.3264 12.998 49.8277 12.4707 49.8277 11.416C49.8277 10.7324 49.1897 9.97396 47.9137 9.14062C47.8681 9.10807 47.8063 9.06901 47.7281 9.02344C47.1227 8.64583 46.2893 8.05664 45.2281 7.25586C44.7268 6.79362 44.3753 6.36068 44.1734 5.95703C43.9586 5.51432 43.8512 4.96745 43.8512 4.31641C43.8512 3.04036 44.3004 2.04753 45.1988 1.33789C46.0257 0.686849 47.0966 0.361328 48.4117 0.361328C51.3023 0.361328 52.7477 1.67969 52.7477 4.31641V4.69727H49.7691V4.61914C49.7691 3.25846 49.2809 2.57812 48.3043 2.57812C47.8551 2.57812 47.5003 2.71484 47.2398 2.98828C46.9794 3.25521 46.8492 3.61328 46.8492 4.0625C46.8492 4.83073 47.6826 5.71289 49.3492 6.70898C49.6487 6.89128 49.9807 7.09635 50.3453 7.32422C51.1852 7.85807 51.7874 8.35938 52.152 8.82812C52.6272 9.44661 52.8648 10.1758 52.8648 11.0156C52.8648 13.8346 51.2405 15.2441 47.9918 15.2441C46.5139 15.2441 45.4202 14.9186 44.7105 14.2676C43.9749 13.597 43.607 12.5293 43.607 11.0645C43.607 11.0059 43.6103 10.9212 43.6168 10.8105C43.6233 10.6999 43.6266 10.6152 43.6266 10.5566Z" fill="#0A6EB3"/>
<path d="M54.2668 15V0.595703H57.0598V9.0625L59.6281 4.96094H62.4406L59.5012 9.33594L62.7824 15H59.7258L57.0598 9.73633V15H54.2668Z" fill="#0A6EB3"/>
<path d="M66.0105 4.96094V15H63.1883V4.96094H66.0105ZM66.0105 0.595703V2.97852H63.1883V0.595703H66.0105Z" fill="#0A6EB3"/>
<path d="M67.3539 15V0.595703H70.1371V15H67.3539Z" fill="#0A6EB3"/>
<path d="M71.5 15V0.595703H74.2832V15H71.5Z" fill="#0A6EB3"/>
<path d="M80.007 7.57812V7.38281C80.007 5.60547 81.3221 4.7168 83.9523 4.7168C86.4198 4.7168 87.6535 5.6901 87.6535 7.63672V12.6367C87.6535 13.5221 87.7186 14.3099 87.8488 15H85.3488L85.134 13.8574C84.5676 14.6712 83.6659 15.0781 82.4289 15.0781C81.55 15.0781 80.8697 14.7689 80.3879 14.1504C79.9517 13.584 79.7336 12.8483 79.7336 11.9434C79.7336 10.8171 80.0852 9.98047 80.7883 9.43359C81.6021 8.80859 82.7349 8.49609 84.1867 8.49609H85.0754V8.03711C85.0754 7.46419 85.0233 7.04753 84.9191 6.78711C84.7499 6.37044 84.4276 6.16211 83.9523 6.16211C83.0604 6.16211 82.6145 6.63411 82.6145 7.57812H80.007ZM85.0754 10.0195C84.1965 10.0195 83.5747 10.1107 83.2102 10.293C82.6763 10.5599 82.4094 11.0807 82.4094 11.8555C82.4094 12.8971 82.7707 13.418 83.4934 13.418C84.548 13.418 85.0754 12.5781 85.0754 10.8984V10.0195Z" fill="#0A6EB3"/>
<path d="M91.9852 15H89.1629V6.75781C89.1629 5.98307 89.1336 5.38411 89.075 4.96094H91.907L91.9852 5.99609C92.4539 5.14323 93.2026 4.7168 94.2312 4.7168C96.0411 4.7168 96.9461 5.59896 96.9461 7.36328V15H94.1238V8.14453C94.1238 7.61719 94.0848 7.24284 94.0066 7.02148C93.8764 6.63086 93.603 6.43555 93.1863 6.43555C92.3855 6.43555 91.9852 6.91081 91.9852 7.86133V15Z" fill="#0A6EB3"/>
<path d="M103.299 8.79883C103.299 7.26888 102.905 6.50391 102.118 6.50391C101.532 6.50391 101.164 6.95964 101.014 7.87109C100.968 8.15755 100.946 8.82161 100.946 9.86328V10.0977C100.946 11.3151 100.955 11.9987 100.975 12.1484C101.105 13.0729 101.473 13.5352 102.079 13.5352C102.645 13.5352 103.013 13.2194 103.182 12.5879C103.26 12.2949 103.299 11.7513 103.299 10.957V8.79883ZM103.319 5.78125V0.595703H106.063V12.7637C106.063 13.4473 106.089 14.1862 106.141 14.9805H103.397L103.299 14.0234C102.87 14.8242 102.131 15.2246 101.082 15.2246C100.262 15.2246 99.6013 14.9642 99.1 14.4434C98.6573 13.9811 98.3741 13.2422 98.2504 12.2266C98.1918 11.7643 98.1625 10.957 98.1625 9.80469C98.1625 8.3138 98.2862 7.21029 98.5336 6.49414C98.9503 5.29622 99.7543 4.69727 100.946 4.69727C101.955 4.69727 102.746 5.05859 103.319 5.78125Z" fill="#0A6EB3"/>
<path d="M1.2793 39V24.5957H9.0625V26.8223H4.31641V30.2598H8.68164V32.4766H4.31641V36.6758H9.23828V39H1.2793Z" fill="#0A6EB3"/>
<path d="M13.2281 39H10.4059V30.7578C10.4059 29.9831 10.3766 29.3841 10.318 28.9609H13.15L13.2281 29.9961C13.6969 29.1432 14.4456 28.7168 15.4742 28.7168C17.2841 28.7168 18.1891 29.599 18.1891 31.3633V39H15.3668V32.1445C15.3668 31.6172 15.3277 31.2428 15.2496 31.0215C15.1194 30.6309 14.846 30.4355 14.4293 30.4355C13.6285 30.4355 13.2281 30.9108 13.2281 31.8613V39Z" fill="#0A6EB3"/>
<path d="M24.5031 38.9414C23.6568 39.0456 22.9829 39.0977 22.4816 39.0977C20.7889 39.0977 19.9426 38.2188 19.9426 36.4609V30.6602H18.6242V28.9609H19.9426V27.2617L22.7062 26.041V28.9609H24.5031V30.6602H22.7062V36.0996C22.7062 36.5749 22.7616 36.8874 22.8723 37.0371C23.009 37.2259 23.2987 37.3203 23.7414 37.3203C23.8781 37.3203 24.0865 37.3105 24.3664 37.291C24.4055 37.291 24.451 37.2878 24.5031 37.2812V38.9414Z" fill="#0A6EB3"/>
<path d="M25.1336 39V28.9414H27.5945L27.7801 30.2598C28.1577 29.2311 28.978 28.7168 30.241 28.7168H30.4168V31.1582H30.1629C29.3426 31.1582 28.7632 31.3633 28.4246 31.7734C28.1121 32.151 27.9559 32.7598 27.9559 33.5996V39H25.1336Z" fill="#0A6EB3"/>
<path d="M33.8207 32.7012H36.3402V31.8613C36.3402 30.8587 35.9268 30.3574 35.1 30.3574C34.2471 30.3574 33.8207 31.0247 33.8207 32.3594V32.7012ZM36.3793 35.2793H39.182C39.182 37.9095 37.8214 39.2246 35.1 39.2246C33.3878 39.2246 32.2289 38.7201 31.6234 37.7109C31.1677 36.9492 30.9398 35.6309 30.9398 33.7559C30.9398 32.0827 31.21 30.862 31.7504 30.0938C32.4014 29.1758 33.518 28.7168 35.1 28.7168C37.8214 28.7168 39.182 30.0645 39.182 32.7598V34.2832H33.8207V35.3184C33.8207 36.7572 34.2406 37.4766 35.0805 37.4766C35.9464 37.4766 36.3793 36.806 36.3793 35.4648V35.2793Z" fill="#0A6EB3"/>
<path d="M43.0742 32.9648V35.1426C43.0742 36.6725 43.4681 37.4375 44.2559 37.4375C44.8418 37.4375 45.2064 36.985 45.3496 36.0801C45.3952 35.8132 45.418 35.1458 45.418 34.0781V33.8438C45.418 32.6393 45.4049 31.9557 45.3789 31.793C45.2487 30.862 44.8809 30.3965 44.2754 30.3965C43.7155 30.3965 43.3509 30.709 43.1816 31.334C43.11 31.627 43.0742 32.1706 43.0742 32.9648ZM40.3105 42.7988V31.1777C40.3105 30.5788 40.2812 29.8398 40.2227 28.9609H42.9766L43.0742 29.918C43.4974 29.1172 44.2363 28.7168 45.291 28.7168C46.1113 28.7168 46.7721 28.9772 47.2734 29.498C47.7161 29.9603 47.9993 30.6992 48.123 31.7148C48.1816 32.1771 48.2109 32.9844 48.2109 34.1367C48.2109 35.6536 48.084 36.7669 47.8301 37.4766C47.4069 38.6549 46.5833 39.2441 45.3594 39.2441C44.4154 39.2441 43.6602 38.8828 43.0938 38.1602V42.7988H40.3105Z" fill="#0A6EB3"/>
<path d="M49.4469 39V28.9414H51.9078L52.0934 30.2598C52.471 29.2311 53.2913 28.7168 54.5543 28.7168H54.7301V31.1582H54.4762C53.6559 31.1582 53.0764 31.3633 52.7379 31.7734C52.4254 32.151 52.2691 32.7598 52.2691 33.5996V39H49.4469Z" fill="#0A6EB3"/>
<path d="M58.134 32.7012H60.6535V31.8613C60.6535 30.8587 60.2401 30.3574 59.4133 30.3574C58.5604 30.3574 58.134 31.0247 58.134 32.3594V32.7012ZM60.6926 35.2793H63.4953C63.4953 37.9095 62.1346 39.2246 59.4133 39.2246C57.701 39.2246 56.5422 38.7201 55.9367 37.7109C55.481 36.9492 55.2531 35.6309 55.2531 33.7559C55.2531 32.0827 55.5233 30.862 56.0637 30.0938C56.7147 29.1758 57.8312 28.7168 59.4133 28.7168C62.1346 28.7168 63.4953 30.0645 63.4953 32.7598V34.2832H58.134V35.3184C58.134 36.7572 58.5539 37.4766 59.3937 37.4766C60.2596 37.4766 60.6926 36.806 60.6926 35.4648V35.2793Z" fill="#0A6EB3"/>
<path d="M67.4461 39H64.6238V30.7578C64.6238 29.9831 64.5945 29.3841 64.5359 28.9609H67.368L67.4461 29.9961C67.9148 29.1432 68.6635 28.7168 69.6922 28.7168C71.5021 28.7168 72.407 29.599 72.407 31.3633V39H69.5848V32.1445C69.5848 31.6172 69.5457 31.2428 69.4676 31.0215C69.3374 30.6309 69.0639 30.4355 68.6473 30.4355C67.8465 30.4355 67.4461 30.9108 67.4461 31.8613V39Z" fill="#0A6EB3"/>
<path d="M76.5043 32.7012H79.0238V31.8613C79.0238 30.8587 78.6104 30.3574 77.7836 30.3574C76.9307 30.3574 76.5043 31.0247 76.5043 32.3594V32.7012ZM79.0629 35.2793H81.8656C81.8656 37.9095 80.5049 39.2246 77.7836 39.2246C76.0714 39.2246 74.9125 38.7201 74.307 37.7109C73.8513 36.9492 73.6234 35.6309 73.6234 33.7559C73.6234 32.0827 73.8936 30.862 74.434 30.0938C75.085 29.1758 76.2016 28.7168 77.7836 28.7168C80.5049 28.7168 81.8656 30.0645 81.8656 32.7598V34.2832H76.5043V35.3184C76.5043 36.7572 76.9242 37.4766 77.7641 37.4766C78.6299 37.4766 79.0629 36.806 79.0629 35.4648V35.2793Z" fill="#0A6EB3"/>
<path d="M87.9062 28.9609H90.748V37.6621C90.748 38.2025 90.7741 38.6419 90.8262 38.9805H88.0039L87.9062 37.916C87.431 38.7884 86.6921 39.2246 85.6895 39.2246C83.873 39.2246 82.9648 38.3359 82.9648 36.5586V28.9609H85.7871V35.7969C85.7871 36.3307 85.8229 36.7018 85.8945 36.9102C86.0247 37.3008 86.2949 37.4961 86.7051 37.4961C87.5059 37.4961 87.9062 37.0241 87.9062 36.0801V28.9609Z" fill="#0A6EB3"/>
<path d="M92.2477 39V28.9414H94.7086L94.8941 30.2598C95.2717 29.2311 96.0921 28.7168 97.3551 28.7168H97.5309V31.1582H97.277C96.4566 31.1582 95.8772 31.3633 95.5387 31.7734C95.2262 32.151 95.0699 32.7598 95.0699 33.5996V39H92.2477Z" fill="#0A6EB3"/>
<path d="M97.9172 35.6797H100.652V35.8848C100.652 36.959 100.993 37.4961 101.677 37.4961C102.517 37.4961 102.937 37.151 102.937 36.4609C102.937 35.9206 102.302 35.3216 101.032 34.6641L100.368 34.3223C99.509 33.86 98.9458 33.502 98.6789 33.248C98.1841 32.7858 97.9367 32.2031 97.9367 31.5C97.9367 30.569 98.3241 29.8464 99.0988 29.332C99.7629 28.8958 100.586 28.6777 101.57 28.6777C104.024 28.6777 105.251 29.5859 105.251 31.4023C105.251 31.4414 105.248 31.4967 105.241 31.5684C105.235 31.6335 105.232 31.6855 105.232 31.7246L102.595 31.7148C102.608 31.6367 102.614 31.5326 102.614 31.4023C102.614 30.6016 102.273 30.2012 101.589 30.2012C100.912 30.2012 100.573 30.4941 100.573 31.0801C100.573 31.5098 101.15 32.0306 102.302 32.6426C102.803 32.9095 103.207 33.1341 103.513 33.3164C104.21 33.7331 104.704 34.1107 104.997 34.4492C105.407 34.9245 105.613 35.4941 105.613 36.1582C105.613 38.1439 104.18 39.1367 101.316 39.1367C99.0305 39.1367 97.8879 38.1178 97.8879 36.0801C97.8879 35.8913 97.8977 35.7578 97.9172 35.6797Z" fill="#0A6EB3"/>
<path d="M109.514 39H106.692V24.5957H109.514V29.9961C109.983 29.1432 110.732 28.7168 111.761 28.7168C113.57 28.7168 114.475 29.599 114.475 31.3633V39H111.653V32.1445C111.653 31.6172 111.614 31.2428 111.536 31.0215C111.406 30.6309 111.132 30.4355 110.716 30.4355C109.915 30.4355 109.514 30.9108 109.514 31.8613V39Z" fill="#0A6EB3"/>
<path d="M118.68 28.9609V39H115.858V28.9609H118.68ZM118.68 24.5957V26.9785H115.858V24.5957H118.68Z" fill="#0A6EB3"/>
<path d="M122.836 32.9648V35.1426C122.836 36.6725 123.23 37.4375 124.018 37.4375C124.604 37.4375 124.968 36.985 125.111 36.0801C125.157 35.8132 125.18 35.1458 125.18 34.0781V33.8438C125.18 32.6393 125.167 31.9557 125.141 31.793C125.01 30.862 124.643 30.3965 124.037 30.3965C123.477 30.3965 123.113 30.709 122.943 31.334C122.872 31.627 122.836 32.1706 122.836 32.9648ZM120.072 42.7988V31.1777C120.072 30.5788 120.043 29.8398 119.984 28.9609H122.738L122.836 29.918C123.259 29.1172 123.998 28.7168 125.053 28.7168C125.873 28.7168 126.534 28.9772 127.035 29.498C127.478 29.9603 127.761 30.6992 127.885 31.7148C127.943 32.1771 127.973 32.9844 127.973 34.1367C127.973 35.6536 127.846 36.7669 127.592 37.4766C127.169 38.6549 126.345 39.2441 125.121 39.2441C124.177 39.2441 123.422 38.8828 122.855 38.1602V42.7988H120.072Z" fill="#0A6EB3"/>
<path d="M143.599 24.5957V33.6191C143.599 35.5202 143.264 36.9036 142.593 37.7695C141.831 38.7526 140.532 39.2441 138.696 39.2441C136.984 39.2441 135.728 38.8014 134.927 37.916C134.172 37.0697 133.794 35.7773 133.794 34.0391V24.5957H136.792V33.2578C136.792 34.5469 136.848 35.3802 136.958 35.7578C137.206 36.6237 137.798 37.0566 138.736 37.0566C139.621 37.0566 140.194 36.6074 140.454 35.709C140.571 35.2923 140.63 34.4753 140.63 33.2578V24.5957H143.599Z" fill="#0A6EB3"/>
<path d="M148.126 39H145.304V30.7578C145.304 29.9831 145.274 29.3841 145.216 28.9609H148.048L148.126 29.9961C148.595 29.1432 149.343 28.7168 150.372 28.7168C152.182 28.7168 153.087 29.599 153.087 31.3633V39H150.264V32.1445C150.264 31.6172 150.225 31.2428 150.147 31.0215C150.017 30.6309 149.744 30.4355 149.327 30.4355C148.526 30.4355 148.126 30.9108 148.126 31.8613V39Z" fill="#0A6EB3"/>
<path d="M157.301 28.9609V39H154.479V28.9609H157.301ZM157.301 24.5957V26.9785H154.479V24.5957H157.301Z" fill="#0A6EB3"/>
<path d="M160.51 39L157.951 28.9609H160.832L161.545 33.0039C161.753 34.1693 161.929 35.6341 162.072 37.3984C162.215 36.3047 162.502 34.931 162.932 33.2773L162.99 33.0527L164.064 28.9609H166.789L163.566 39H160.51Z" fill="#0A6EB3"/>
<path d="M169.812 32.7012H172.332V31.8613C172.332 30.8587 171.918 30.3574 171.091 30.3574C170.239 30.3574 169.812 31.0247 169.812 32.3594V32.7012ZM172.371 35.2793H175.173C175.173 37.9095 173.813 39.2246 171.091 39.2246C169.379 39.2246 168.22 38.7201 167.615 37.7109C167.159 36.9492 166.931 35.6309 166.931 33.7559C166.931 32.0827 167.201 30.862 167.742 30.0938C168.393 29.1758 169.509 28.7168 171.091 28.7168C173.813 28.7168 175.173 30.0645 175.173 32.7598V34.2832H169.812V35.3184C169.812 36.7572 170.232 37.4766 171.072 37.4766C171.938 37.4766 172.371 36.806 172.371 35.4648V35.2793Z" fill="#0A6EB3"/>
<path d="M176.312 39V28.9414H178.773L178.958 30.2598C179.336 29.2311 180.156 28.7168 181.419 28.7168H181.595V31.1582H181.341C180.521 31.1582 179.941 31.3633 179.603 31.7734C179.29 32.151 179.134 32.7598 179.134 33.5996V39H176.312Z" fill="#0A6EB3"/>
<path d="M181.981 35.6797H184.716V35.8848C184.716 36.959 185.057 37.4961 185.741 37.4961C186.581 37.4961 187.001 37.151 187.001 36.4609C187.001 35.9206 186.366 35.3216 185.096 34.6641L184.432 34.3223C183.573 33.86 183.01 33.502 182.743 33.248C182.248 32.7858 182.001 32.2031 182.001 31.5C182.001 30.569 182.388 29.8464 183.163 29.332C183.827 28.8958 184.651 28.6777 185.634 28.6777C188.088 28.6777 189.315 29.5859 189.315 31.4023C189.315 31.4414 189.312 31.4967 189.305 31.5684C189.299 31.6335 189.296 31.6855 189.296 31.7246L186.659 31.7148C186.672 31.6367 186.679 31.5326 186.679 31.4023C186.679 30.6016 186.337 30.2012 185.653 30.2012C184.976 30.2012 184.637 30.4941 184.637 31.0801C184.637 31.5098 185.214 32.0306 186.366 32.6426C186.867 32.9095 187.271 33.1341 187.577 33.3164C188.274 33.7331 188.768 34.1107 189.061 34.4492C189.471 34.9245 189.677 35.4941 189.677 36.1582C189.677 38.1439 188.244 39.1367 185.38 39.1367C183.095 39.1367 181.952 38.1178 181.952 36.0801C181.952 35.8913 181.962 35.7578 181.981 35.6797Z" fill="#0A6EB3"/>
<path d="M193.5 28.9609V39H190.678V28.9609H193.5ZM193.5 24.5957V26.9785H190.678V24.5957H193.5Z" fill="#0A6EB3"/>
<path d="M199.746 38.9414C198.9 39.0456 198.226 39.0977 197.725 39.0977C196.032 39.0977 195.186 38.2188 195.186 36.4609V30.6602H193.867V28.9609H195.186V27.2617L197.949 26.041V28.9609H199.746V30.6602H197.949V36.0996C197.949 36.5749 198.005 36.8874 198.115 37.0371C198.252 37.2259 198.542 37.3203 198.984 37.3203C199.121 37.3203 199.329 37.3105 199.609 37.291C199.648 37.291 199.694 37.2878 199.746 37.2812V38.9414Z" fill="#0A6EB3"/>
<path d="M201.343 42.7988L202.437 39.2441L199.517 28.9609H202.339L203.863 36.1582L205.66 28.9609H208.404L204.224 42.7988H201.343Z" fill="#0A6EB3"/>
<path d="M6.0791 48.1411C6.0791 47.5161 5.92285 47.0352 5.61035 46.6982C5.30273 46.3613 4.86328 46.1929 4.29199 46.1929C3.51074 46.1929 2.97119 46.4688 2.67334 47.0205C2.38037 47.5723 2.23389 48.7563 2.23389 50.5728C2.23389 52.3257 2.39502 53.4976 2.71729 54.0884C3.03955 54.6743 3.61816 54.9673 4.45312 54.9673C4.67285 54.9673 4.92188 54.9526 5.2002 54.9233C5.4834 54.8892 5.80566 54.833 6.16699 54.7549V51.5615H4.66553V50.3164H7.57324V55.729C6.97266 55.8706 6.3916 55.9854 5.83008 56.0732C5.33203 56.1465 4.86816 56.1831 4.43848 56.1831C3.80859 56.1831 3.26904 56.1099 2.81982 55.9634C2.37549 55.812 2.0166 55.5801 1.74316 55.2676C1.39648 54.8916 1.14502 54.3423 0.98877 53.6196C0.915527 53.2583 0.859375 52.8115 0.820312 52.2793C0.78125 51.7422 0.761719 51.1172 0.761719 50.4043C0.761719 49.2861 0.81543 48.4292 0.922852 47.8335C1.03516 47.2329 1.22314 46.7275 1.48682 46.3174C1.75049 45.9023 2.12402 45.585 2.60742 45.3652C3.09082 45.1455 3.66699 45.0356 4.33594 45.0356C5.35645 45.0356 6.14502 45.3042 6.70166 45.8413C7.26318 46.3784 7.54395 47.1353 7.54395 48.1118V48.1411H6.0791Z" fill="#FF9300"/>
<path d="M9.46992 52.2207C9.46992 50.8438 9.69697 49.8477 10.1511 49.2324C10.6052 48.6123 11.3229 48.3022 12.3044 48.3022C13.2956 48.3022 14.0134 48.6123 14.4577 49.2324C14.9021 49.8525 15.1242 50.8535 15.1242 52.2354C15.1242 53.6221 14.8996 54.6279 14.4504 55.2529C14.0061 55.873 13.2907 56.1831 12.3044 56.1831C11.3132 56.1831 10.593 55.8706 10.1438 55.2456C9.69453 54.6206 9.46992 53.6123 9.46992 52.2207ZM12.3044 49.4009C11.7722 49.4009 11.3864 49.6206 11.1472 50.0601C10.9079 50.4995 10.7883 51.2246 10.7883 52.2354C10.7883 53.2607 10.9055 53.9932 11.1398 54.4326C11.3742 54.8672 11.7624 55.0845 12.3044 55.0845C12.8415 55.0845 13.2248 54.8672 13.4543 54.4326C13.6887 53.998 13.8059 53.2705 13.8059 52.25C13.8059 51.2197 13.6887 50.4873 13.4543 50.0527C13.2248 49.6182 12.8415 49.4009 12.3044 49.4009Z" fill="#FF9300"/>
<path d="M18.5736 56L16.2152 48.4707H17.7167L18.9032 52.8066C19.0009 53.1826 19.0888 53.5537 19.1669 53.9199L19.372 55.0845C19.5331 54.3813 19.7113 53.6978 19.9066 53.0337L19.9726 52.814L21.1811 48.4707H22.536L20.1776 56H18.5736Z" fill="#FF9300"/>
<path d="M25.524 46.3394V48.4707H27.0255V49.4009H25.524V53.9126C25.524 54.3179 25.5851 54.5986 25.7071 54.7549C25.8341 54.9062 26.0636 54.9819 26.3956 54.9819L26.9815 54.9526H27.0255L27.0182 55.9268C26.8375 55.9658 26.6495 55.9976 26.4542 56.022L25.9635 56.0586C25.3336 56.0586 24.8868 55.9341 24.6231 55.6851C24.3644 55.436 24.235 54.9966 24.235 54.3667V49.4009H23.0924V48.4707H24.235V46.9546L25.524 46.3394Z" fill="#FF9300"/>
<path d="M28.6438 56V54.3374H30.0721V56H28.6438Z" fill="#FF9300"/>
<path d="M36.0187 52.2207C36.0187 50.8438 36.2458 49.8477 36.6999 49.2324C37.154 48.6123 37.8718 48.3022 38.8532 48.3022C39.8444 48.3022 40.5622 48.6123 41.0065 49.2324C41.4509 49.8525 41.673 50.8535 41.673 52.2354C41.673 53.6221 41.4484 54.6279 40.9992 55.2529C40.5549 55.873 39.8396 56.1831 38.8532 56.1831C37.862 56.1831 37.1418 55.8706 36.6926 55.2456C36.2434 54.6206 36.0187 53.6123 36.0187 52.2207ZM38.8532 49.4009C38.321 49.4009 37.9353 49.6206 37.696 50.0601C37.4567 50.4995 37.3371 51.2246 37.3371 52.2354C37.3371 53.2607 37.4543 53.9932 37.6887 54.4326C37.923 54.8672 38.3112 55.0845 38.8532 55.0845C39.3903 55.0845 39.7736 54.8672 40.0031 54.4326C40.2375 53.998 40.3547 53.2705 40.3547 52.25C40.3547 51.2197 40.2375 50.4873 40.0031 50.0527C39.7736 49.6182 39.3903 49.4009 38.8532 49.4009Z" fill="#FF9300"/>
<path d="M43.7455 46.6982C43.7455 46.3467 43.7846 46.0806 43.8627 45.8999C43.9408 45.7192 44.0751 45.563 44.2655 45.4312C44.4608 45.2944 44.7123 45.1943 45.0199 45.1309C45.3275 45.0674 45.6864 45.0356 46.0966 45.0356H46.4262V46.0537C46.1381 46.0537 45.9037 46.0757 45.723 46.1196C45.5473 46.1636 45.4057 46.2295 45.2982 46.3174C45.1127 46.4785 45.0199 46.896 45.0199 47.5698V48.4707H46.4262V49.4009H45.0199V56H43.7455V49.4009H42.6908V48.4707H43.7455V46.6982Z" fill="#FF9300"/>
<path d="M57.6756 54.7549L57.6316 53.7441L57.617 52.7773V45.1968H58.9354V56H57.0018L52.8489 46.1782L52.9368 47.3721L52.9661 48.2144V56H51.6771V45.1968H53.7059L57.6756 54.7549Z" fill="#FF9300"/>
<path d="M67.4751 52.6675V52.9092C67.4751 53.9297 67.2041 54.728 66.6621 55.3042C66.1201 55.8804 65.3657 56.1685 64.3989 56.1685C63.9497 56.1685 63.5225 56.1025 63.1172 55.9707C62.7168 55.8389 62.3945 55.6582 62.1504 55.4287C61.7451 55.0625 61.4546 54.5205 61.2788 53.8027C61.2007 53.4561 61.1396 52.9922 61.0957 52.4111C61.0518 51.8252 61.0298 51.1416 61.0298 50.3604C61.0298 49.2568 61.0811 48.4048 61.1836 47.8042C61.2861 47.2036 61.4619 46.7056 61.7109 46.3101C61.96 45.9146 62.3164 45.6094 62.7803 45.3945C63.2441 45.1748 63.7788 45.0649 64.3843 45.0649C65.3706 45.0649 66.1201 45.3408 66.6328 45.8926C67.1455 46.4395 67.4019 47.2378 67.4019 48.2876H65.8857V48.1265C65.8857 47.4819 65.7588 47.001 65.5049 46.6836C65.251 46.3662 64.8628 46.2075 64.3403 46.2075C64.0132 46.2075 63.7251 46.271 63.4761 46.3979C63.2319 46.5249 63.0366 46.708 62.8901 46.9473C62.7437 47.1865 62.6362 47.5674 62.5679 48.0898C62.4995 48.6074 62.4653 49.54 62.4653 50.8877C62.4653 52.5283 62.6021 53.627 62.8755 54.1836C63.1538 54.7354 63.6421 55.0112 64.3403 55.0112C64.9019 55.0112 65.3145 54.8281 65.5781 54.4619C65.8418 54.0957 65.9736 53.5391 65.9736 52.792V52.6675H67.4751Z" fill="#FF9300"/>
<path d="M71.4079 56V46.3101H68.7565V45.1968H75.4143V46.3101H72.8361V56H71.4079Z" fill="#FF9300"/>
<path d="M80.4381 52.2207C80.4381 50.8438 80.6651 49.8477 81.1192 49.2324C81.5733 48.6123 82.2911 48.3022 83.2726 48.3022C84.2638 48.3022 84.9815 48.6123 85.4259 49.2324C85.8702 49.8525 86.0924 50.8535 86.0924 52.2354C86.0924 53.6221 85.8678 54.6279 85.4186 55.2529C84.9742 55.873 84.2589 56.1831 83.2726 56.1831C82.2813 56.1831 81.5611 55.8706 81.1119 55.2456C80.6627 54.6206 80.4381 53.6123 80.4381 52.2207ZM83.2726 49.4009C82.7403 49.4009 82.3546 49.6206 82.1153 50.0601C81.8761 50.4995 81.7564 51.2246 81.7564 52.2354C81.7564 53.2607 81.8736 53.9932 82.108 54.4326C82.3424 54.8672 82.7306 55.0845 83.2726 55.0845C83.8097 55.0845 84.193 54.8672 84.4225 54.4326C84.6568 53.998 84.774 53.2705 84.774 52.25C84.774 51.2197 84.6568 50.4873 84.4225 50.0527C84.193 49.6182 83.8097 49.4009 83.2726 49.4009Z" fill="#FF9300"/>
<path d="M88.1648 46.6982C88.1648 46.3467 88.2039 46.0806 88.282 45.8999C88.3602 45.7192 88.4944 45.563 88.6849 45.4312C88.8802 45.2944 89.1316 45.1943 89.4393 45.1309C89.7469 45.0674 90.1058 45.0356 90.5159 45.0356H90.8455V46.0537C90.5574 46.0537 90.323 46.0757 90.1424 46.1196C89.9666 46.1636 89.825 46.2295 89.7176 46.3174C89.532 46.4785 89.4393 46.896 89.4393 47.5698V48.4707H90.8455V49.4009H89.4393V56H88.1648V49.4009H87.1102V48.4707H88.1648V46.6982Z" fill="#FF9300"/>
<path d="M96.0964 56V45.1968H98.6892C99.6608 45.1968 100.349 45.2529 100.755 45.3652C101.165 45.4775 101.516 45.6729 101.809 45.9512C102.175 46.2881 102.432 46.7568 102.578 47.3574C102.652 47.6553 102.708 48.085 102.747 48.6465C102.786 49.2031 102.805 49.894 102.805 50.7192C102.805 51.9155 102.754 52.8018 102.652 53.3779C102.554 53.9541 102.39 54.4131 102.161 54.7549C101.853 55.209 101.47 55.5312 101.011 55.7217C100.552 55.9072 99.778 56 98.6892 56H96.0964ZM97.5393 54.7695H99.0554C99.573 54.7695 99.9807 54.7109 100.279 54.5938C100.581 54.4766 100.813 54.2861 100.974 54.0225C101.121 53.7588 101.228 53.3584 101.297 52.8213C101.37 52.2793 101.406 51.5127 101.406 50.5215C101.406 50.2236 101.399 49.9258 101.384 49.6279C101.37 49.3301 101.355 48.9907 101.341 48.6099C101.341 48.3462 101.326 48.1338 101.297 47.9727C101.272 47.8115 101.238 47.6772 101.194 47.5698C101.038 47.1353 100.799 46.8276 100.476 46.647C100.159 46.4614 99.6853 46.3687 99.0554 46.3687H97.5393V54.7695Z" fill="#FF9300"/>
<path d="M105.874 51.5615H108.782V50.917C108.782 50.3604 108.664 49.9331 108.43 49.6353C108.196 49.3374 107.851 49.1885 107.397 49.1885C106.899 49.1885 106.521 49.3789 106.262 49.7598C106.135 49.9551 106.037 50.2041 105.969 50.5068C105.906 50.8047 105.874 51.1562 105.874 51.5615ZM110.056 53.6416C110.056 54.0273 109.99 54.3765 109.858 54.689C109.726 54.9966 109.534 55.27 109.28 55.5093C108.806 55.9585 108.164 56.1831 107.353 56.1831C106.357 56.1831 105.637 55.8755 105.193 55.2603C104.753 54.6401 104.534 53.6123 104.534 52.1768C104.534 50.8242 104.758 49.8403 105.207 49.2251C105.657 48.6099 106.372 48.3022 107.353 48.3022C108.286 48.3022 108.97 48.5488 109.404 49.042C109.839 49.5303 110.056 50.3042 110.056 51.3638V52.5356H105.867V52.9678C105.867 53.7002 105.984 54.2373 106.218 54.5791C106.453 54.916 106.831 55.0845 107.353 55.0845C107.744 55.0845 108.061 54.96 108.306 54.7109C108.55 54.4619 108.704 54.1055 108.767 53.6416H110.056Z" fill="#FF9300"/>
<path d="M113.044 56H111.755V45.1968H113.044V56Z" fill="#FF9300"/>
<path d="M119.02 56V51.188C119.02 50.4604 118.925 49.96 118.735 49.6865C118.549 49.4131 118.229 49.2764 117.775 49.2764C117.262 49.2764 116.889 49.4668 116.655 49.8477C116.42 50.2236 116.303 50.8242 116.303 51.6494V56H115.014V45.1968H116.303V49.3423C116.576 48.981 116.874 48.7148 117.197 48.5439C117.519 48.373 117.89 48.2876 118.31 48.2876C118.925 48.2876 119.413 48.4707 119.775 48.8369C120.141 49.1982 120.324 49.6914 120.324 50.3164V56H119.02Z" fill="#FF9300"/>
<path d="M122.36 46.5811V45.1968H123.605V46.5811H122.36ZM122.36 56V48.4707H123.605V56H122.36Z" fill="#FF9300"/>
</svg>
